# 3ds Max Wavefront OBJ Exporter v0.99 - (c)2007 guruware
# File Created: 15.08.2024 23:26:27

mtllib ?????\???\2? ???\C_Rug.mtl

#
# object C_Rug1
#

#
# object C_Rug1
#

v  -149.0290 43.9078 1.1109
v  -158.4244 54.4569 1.0510
v  -158.0024 44.2536 1.6063
v  -158.1297 44.1681 0.8476
v  -151.2857 43.7360 0.2413
v  -143.4247 43.9078 1.3156
v  -158.5892 60.9678 1.3659
v  -137.2435 43.7429 0.9474
v  -158.7783 68.0808 0.6297
v  -131.8041 43.4132 2.3842
v  -158.8364 74.4839 2.2197
v  -126.6944 43.5781 2.1518
v  -158.9189 80.3355 2.4202
v  -121.4018 43.6611 0.9596
v  -158.7128 87.0911 1.2232
v  -73.4945 43.6611 0.2623
v  -73.6437 188.1294 0.3087
v  -158.5636 187.9801 0.3609
v  -73.5381 188.2412 -0.4880
v  -158.7729 187.9529 -0.5387
v  -158.8275 95.5116 -0.1321
v  -73.6157 43.6394 -0.5749
v  -158.7962 88.8052 0.1176
v  -120.8116 43.8841 -0.1618
v  -158.5538 84.5611 0.8332
v  -126.2739 43.3752 1.4101
v  -159.0956 79.2475 1.7398
v  -131.1328 43.3109 1.7669
v  -159.0545 74.4878 1.3678
v  -136.1297 43.4287 0.6178
v  -158.3152 69.2672 0.1258
v  -139.1880 43.6068 -0.1730
v  -158.7381 67.2441 -0.1664
v  -141.9934 43.6235 0.4061
v  -158.7038 60.3865 0.6614
v  -158.6132 54.3748 0.1353
v  -147.7327 43.6644 0.3997
# 37 vertices

vn -0.0246 -0.6170 0.7866
vn -0.6559 -0.0373 0.7540
vn -0.5044 -0.5259 0.6848
vn -0.6458 -0.6155 -0.4518
vn -0.0820 -0.2910 -0.9532
vn 0.0162 -0.5750 0.8180
vn -0.5953 0.0386 0.8026
vn -0.1773 -0.6506 0.7385
vn -0.8917 0.0079 0.4526
vn -0.0587 -0.6562 0.7523
vn -0.6320 -0.0777 0.7710
vn 0.1477 -0.5166 0.8434
vn -0.5957 0.1461 0.7898
vn 0.0375 -0.7841 0.6195
vn -0.6438 0.0617 0.7627
vn 0.6269 -0.5629 0.5387
vn 0.5405 0.5390 0.6460
vn -0.5014 0.6026 0.6208
vn 0.6078 0.6121 -0.5059
vn -0.6479 0.5558 -0.5209
vn -0.7397 -0.0105 -0.6728
vn 0.5264 -0.5953 -0.6070
vn -0.7476 -0.0541 -0.6620
vn -0.0518 -0.6246 -0.7793
vn -0.5472 -0.1612 -0.8214
vn -0.0330 -0.8922 -0.4503
vn -0.8618 -0.0706 -0.5024
vn 0.0149 -0.8016 -0.5977
vn -0.7845 -0.0121 -0.6200
vn 0.1187 -0.8006 -0.5874
vn -0.2624 0.1958 -0.9449
vn 0.1047 -0.6547 -0.7486
vn -0.6257 0.0736 -0.7766
vn -0.0635 -0.8883 -0.4550
vn -0.8164 -0.0626 -0.5740
vn -0.7368 0.0159 -0.6759
vn -0.0000 -0.8180 -0.5753
# 37 vertex normals

vt 0.0660 0.0181 0.0000
vt 0.0285 0.0579 0.0000
vt 0.0314 0.0187 0.0000
vt 0.0298 0.0171 0.0000
vt 0.0572 0.0146 0.0000
vt 0.0878 0.0183 0.0000
vt 0.0274 0.0831 0.0000
vt 0.1119 0.0178 0.0000
vt 0.0266 0.1109 0.0000
vt 0.1338 0.0167 0.0000
vt 0.0280 0.1364 0.0000
vt 0.1535 0.0168 0.0000
vt 0.0282 0.1590 0.0000
vt 0.1746 0.0164 0.0000
vt 0.0303 0.1856 0.0000
vt 0.3601 0.0155 0.0000
vt 0.3630 0.5751 0.0000
vt 0.0343 0.5766 0.0000
vt 0.3646 0.5767 0.0000
vt 0.0324 0.5782 0.0000
vt 0.0253 0.2185 0.0000
vt 0.4037 0.0244 0.0000
vt 0.4038 0.0441 0.0000
vt 0.3857 0.0443 0.0000
vt 0.3855 0.0136 0.0000
vt 0.3614 0.0140 0.0000
vt 0.0270 0.1927 0.0000
vt 0.3955 0.0135 0.0000
vt 0.4037 0.0230 0.0000
vt 0.1774 0.0121 0.0000
vt 0.0260 0.1762 0.0000
vt 0.4036 0.0221 0.0000
vt 0.3967 0.0134 0.0000
vt 0.1554 0.0142 0.0000
vt 0.0252 0.1550 0.0000
vt 0.4038 0.0209 0.0000
vt 0.3977 0.0133 0.0000
vt 0.1361 0.0141 0.0000
vt 0.0249 0.1361 0.0000
vt 0.4038 0.0199 0.0000
vt 0.3989 0.0133 0.0000
vt 0.1161 0.0157 0.0000
vt 0.0235 0.1153 0.0000
vt 0.4037 0.0187 0.0000
vt 0.3995 0.0133 0.0000
vt 0.1043 0.0132 0.0000
vt 0.0235 0.1075 0.0000
vt 0.0933 0.0147 0.0000
vt 0.0247 0.0808 0.0000
vt 0.4038 0.0168 0.0000
vt 0.4038 0.0183 0.0000
vt 0.4002 0.0133 0.0000
vt 0.0249 0.0573 0.0000
vt 0.4037 0.0155 0.0000
vt 0.4014 0.0133 0.0000
vt 0.4022 0.0133 0.0000
vt 0.4036 0.0134 0.0000
vt 0.0710 0.0152 0.0000
# 58 texture coords

o C_Rug1
g C_Rug1
usemtl C_Rug
s 1
f 1/1/1 2/2/2 3/3/3 
f 3/3/3 4/4/4 5/5/5 1/1/1 
f 6/6/6 7/7/7 2/2/2 1/1/1 
f 8/8/8 9/9/9 7/7/7 6/6/6 
f 10/10/10 11/11/11 9/9/9 8/8/8 
f 12/12/12 13/13/13 11/11/11 10/10/10 
f 14/14/14 15/15/15 13/13/13 12/12/12 
f 15/15/15 14/14/14 16/16/16 17/17/17 
f 18/18/18 15/15/15 17/17/17 
f 17/17/17 19/19/19 20/20/20 18/18/18 
f 18/18/18 20/20/20 21/21/21 15/15/15 
f 21/22/21 20/23/20 19/24/19 22/25/22 
f 17/17/17 16/16/16 22/26/22 19/19/19 
f 15/15/15 21/21/21 23/27/23 
f 21/22/21 22/25/22 24/28/24 23/29/23 
f 16/16/16 14/14/14 24/30/24 22/26/22 
f 15/15/15 23/27/23 25/31/25 13/13/13 
f 25/32/25 23/29/23 24/28/24 26/33/26 
f 14/14/14 12/12/12 26/34/26 24/30/24 
f 13/13/13 25/31/25 27/35/27 
f 27/36/27 25/32/25 26/33/26 28/37/28 
f 12/12/12 10/10/10 28/38/28 26/34/26 
f 11/11/11 13/13/13 27/35/27 29/39/29 
f 29/40/29 27/36/27 28/37/28 30/41/30 
f 10/10/10 8/8/8 30/42/30 28/38/28 
f 11/11/11 29/39/29 31/43/31 9/9/9 
f 31/44/31 29/40/29 30/41/30 32/45/32 
f 30/42/30 8/8/8 32/46/32 
f 9/9/9 31/43/31 33/47/33 
f 32/46/32 8/8/8 6/6/6 34/48/34 
f 7/7/7 9/9/9 33/47/33 35/49/35 
f 35/50/35 33/51/33 34/52/34 
f 31/44/31 32/45/32 34/52/34 33/51/33 
f 2/2/2 7/7/7 35/49/35 36/53/36 
f 36/54/36 35/50/35 34/52/34 37/55/37 
f 3/3/3 2/2/2 36/53/36 4/4/4 
f 37/55/37 5/56/5 4/57/4 36/54/36 
f 6/6/6 1/1/1 37/58/37 34/48/34 
f 37/58/37 1/1/1 5/5/5 
# 31 polygons - 8 triangles

#
# object C_Rug2
#

v  29.9725 185.9616 -0.2907
v  21.3123 188.5974 -0.6383
v  12.2593 188.6765 -0.5595
v  38.0680 182.0080 1.8159
v  -3.5389 184.6438 0.3504
v  12.7429 189.0968 -1.5872
v  21.0549 188.6685 -1.4615
v  4.9331 187.8443 -0.5894
v  44.0925 179.1840 0.7416
v  -10.1282 181.0667 1.7035
v  48.7992 174.1008 0.4497
v  -15.0231 178.4310 0.4695
v  -18.6002 174.2891 0.4693
v  -21.2359 169.3942 0.4541
v  53.8823 163.9344 0.8400
v  57.2711 157.5334 0.2282
v  -26.6957 158.4747 0.3923
v  -30.0844 149.8145 -0.1879
v  61.2248 146.9905 -0.3241
v  -32.9085 139.8363 -0.2320
v  64.8018 130.2348 -0.3035
v  -35.2315 127.5867 -0.3091
v  65.5549 113.6673 -0.3390
v  -35.7520 112.9671 -0.3150
v  64.4252 100.4887 -0.2923
v  -34.1446 96.7421 -0.3953
v  61.6012 86.5569 -0.3553
v  -31.4933 85.3088 -0.3943
v  57.0828 74.1314 -0.1497
v  -25.8761 70.7177 -0.4548
v  51.9996 64.1533 -0.3889
v  2.3755 42.5116 -0.3520
v  14.4072 40.0920 -0.2210
v  24.1363 41.5613 -0.3250
v  15.4013 39.9802 -1.1073
v  24.1405 41.1942 -1.0684
v  35.2440 46.4563 -0.3017
v  -8.6473 48.8466 -0.5069
v  44.8455 54.9282 -0.1903
v  -18.1995 58.4951 -0.4876
v  5.2066 188.0653 -1.3387
v  30.0336 185.8511 -1.1673
v  -3.7983 184.4848 -0.4959
v  38.7565 182.1752 -0.0468
v  -10.5508 181.1659 -0.3864
v  44.2476 179.2802 -0.0823
v  -15.2362 178.5816 -0.2985
v  48.8580 174.4143 -0.3261
v  -18.8627 174.1276 -0.4932
v  54.1136 163.8129 -0.0204
v  -21.7677 168.8657 -0.2764
v  -27.1001 158.7274 -0.3619
v  57.5470 157.5549 -0.5814
v  61.3439 146.9417 -1.2677
v  -30.4681 149.8757 -1.0403
v  64.9550 130.0798 -1.2248
v  -33.3014 139.6294 -1.0527
v  65.8067 113.3048 -1.1751
v  -35.3411 127.0908 -1.0715
v  -35.8288 112.2866 -1.0712
v  64.7253 100.0718 -1.1502
v  -34.0408 96.0625 -1.1604
v  61.8731 86.2413 -1.1655
v  -31.4049 84.8958 -1.1531
v  57.4612 73.9430 -1.0253
v  -25.5781 70.3203 -1.2303
v  52.1057 64.0519 -1.0315
v  -17.8805 58.1861 -1.0599
v  -8.5223 48.8396 -1.1627
v  45.2416 55.0185 -1.0368
v  2.5331 42.4192 -1.0771
v  35.4469 46.4082 -1.0943
# 72 vertices

vn 0.2734 0.8799 0.3886
vn 0.1294 0.7699 0.6249
vn -0.0329 0.6525 0.7571
vn 0.2522 0.3605 0.8980
vn -0.2727 0.8019 0.5316
vn -0.0151 0.7671 -0.6414
vn 0.1166 0.6974 -0.7071
vn -0.1790 0.7823 0.5967
vn 0.4236 0.5139 0.7460
vn -0.3451 0.4123 0.8432
vn 0.5377 0.3566 0.7641
vn -0.5494 0.5965 0.5851
vn -0.5577 0.3992 0.7277
vn -0.5315 0.2772 0.8004
vn 0.5625 0.2512 0.7877
vn 0.5630 0.2024 0.8013
vn -0.4557 0.1650 0.8747
vn -0.5335 0.1547 0.8315
vn 0.6644 0.1831 0.7246
vn -0.5531 0.1314 0.8227
vn 0.6679 0.0920 0.7385
vn -0.6993 0.0961 0.7083
vn 0.6122 -0.0017 0.7907
vn -0.6852 -0.0019 0.7283
vn 0.5656 -0.0733 0.8214
vn -0.7211 -0.0985 0.6858
vn 0.5522 -0.1444 0.8211
vn -0.6835 -0.1940 0.7037
vn 0.4974 -0.2162 0.8401
vn -0.7019 -0.3242 0.6342
vn 0.5486 -0.3519 0.7584
vn -0.2761 -0.6650 0.6940
vn -0.0884 -0.7187 0.6897
vn 0.1639 -0.5409 0.8249
vn 0.0494 -0.7926 -0.6078
vn 0.2367 -0.8385 -0.4908
vn 0.3495 -0.5773 0.7379
vn -0.4804 -0.6063 0.6337
vn 0.4509 -0.4350 0.7794
vn -0.6291 -0.4558 0.6297
vn -0.1949 0.6975 -0.6896
vn 0.2695 0.5089 -0.8176
vn -0.3072 0.6358 -0.7081
vn 0.3502 0.7236 -0.5948
vn -0.3537 0.6530 -0.6697
vn 0.4882 0.6564 -0.5752
vn -0.5412 0.6542 -0.5282
vn 0.6646 0.4790 -0.5735
vn -0.6407 0.4075 -0.6507
vn 0.6782 0.3875 -0.6244
vn -0.7156 0.3743 -0.5897
vn -0.8030 0.3938 -0.4474
vn 0.7430 0.3672 -0.5596
vn 0.7200 0.2169 -0.6592
vn -0.7963 0.2740 -0.5394
vn 0.7654 0.0918 -0.6370
vn -0.8235 0.1719 -0.5406
vn 0.8168 -0.0270 -0.5762
vn -0.7513 0.0558 -0.6576
vn -0.7757 -0.0538 -0.6288
vn 0.8325 -0.1321 -0.5380
vn -0.7200 -0.1435 -0.6789
vn 0.8105 -0.2387 -0.5349
vn -0.7061 -0.2407 -0.6660
vn 0.7837 -0.3552 -0.5095
vn -0.6062 -0.3372 -0.7203
vn 0.6671 -0.4320 -0.6070
vn -0.5324 -0.4733 -0.7018
vn -0.4173 -0.5539 -0.7205
vn 0.6090 -0.5408 -0.5803
vn -0.2450 -0.7209 -0.6483
vn 0.4451 -0.6582 -0.6071
# 72 vertex normals

vt 0.4813 0.5464 0.0000
vt 0.4481 0.5246 0.0000
vt 0.4236 0.4933 0.0000
vt 0.5189 0.5611 0.0000
vt 0.3948 0.4277 0.0000
vt 0.4210 0.4979 0.0000
vt 0.4447 0.5265 0.0000
vt 0.4061 0.4660 0.0000
vt 0.5450 0.5741 0.0000
vt 0.3902 0.3947 0.0000
vt 0.5752 0.5763 0.0000
vt 0.3866 0.3701 0.0000
vt 0.3914 0.3462 0.0000
vt 0.4015 0.3233 0.0000
vt 0.6236 0.5662 0.0000
vt 0.6545 0.5607 0.0000
vt 0.4248 0.2745 0.0000
vt 0.4459 0.2390 0.0000
vt 0.7011 0.5462 0.0000
vt 0.4729 0.2021 0.0000
vt 0.7679 0.5138 0.0000
vt 0.5088 0.1609 0.0000
vt 0.8266 0.4725 0.0000
vt 0.5583 0.1205 0.0000
vt 0.8687 0.4338 0.0000
vt 0.6184 0.0825 0.0000
vt 0.9088 0.3872 0.0000
vt 0.6647 0.0612 0.0000
vt 0.9390 0.3388 0.0000
vt 0.7298 0.0419 0.0000
vt 0.9593 0.2950 0.0000
vt 0.9016 0.0658 0.0000
vt 0.9411 0.1019 0.0000
vt 0.9615 0.1396 0.0000
vt 0.9467 0.1029 0.0000
vt 0.9646 0.1379 0.0000
vt 0.9744 0.1908 0.0000
vt 0.8508 0.0439 0.0000
vt 0.9714 0.2461 0.0000
vt 0.7923 0.0361 0.0000
vt 0.0000 0.0000 0.0000
vt 0.4038 0.4688 0.0000
vt 0.4795 0.5498 0.0000
vt 0.4354 0.0690 0.0000
vt 0.4299 0.0692 0.0000
vt 0.4268 0.0683 0.0000
vt 0.4385 0.0677 0.0000
vt 0.3907 0.4276 0.0000
vt 0.5175 0.5695 0.0000
vt 0.4408 0.0666 0.0000
vt 0.4238 0.0670 0.0000
vt 0.3814 0.3944 0.0000
vt 0.5446 0.5777 0.0000
vt 0.4425 0.0657 0.0000
vt 0.4219 0.0660 0.0000
vt 0.3831 0.3694 0.0000
vt 0.5744 0.5798 0.0000
vt 0.4437 0.0641 0.0000
vt 0.4203 0.0643 0.0000
vt 0.3880 0.3437 0.0000
vt 0.6253 0.5697 0.0000
vt 0.4447 0.0623 0.0000
vt 0.4185 0.0606 0.0000
vt 0.3998 0.3191 0.0000
vt 0.4214 0.2729 0.0000
vt 0.6560 0.5641 0.0000
vt 0.4465 0.0587 0.0000
vt 0.4173 0.0585 0.0000
vt 0.7030 0.5498 0.0000
vt 0.4477 0.0556 0.0000
vt 0.4160 0.0548 0.0000
vt 0.4428 0.2365 0.0000
vt 0.7706 0.5169 0.0000
vt 0.4486 0.0520 0.0000
vt 0.4147 0.0490 0.0000
vt 0.4708 0.1987 0.0000
vt 0.8302 0.4745 0.0000
vt 0.4493 0.0477 0.0000
vt 0.4143 0.0432 0.0000
vt 0.5080 0.1568 0.0000
vt 0.4494 0.0425 0.0000
vt 0.5590 0.1164 0.0000
vt 0.8727 0.4355 0.0000
vt 0.4147 0.0387 0.0000
vt 0.4487 0.0369 0.0000
vt 0.6194 0.0782 0.0000
vt 0.9125 0.3887 0.0000
vt 0.4156 0.0339 0.0000
vt 0.4478 0.0330 0.0000
vt 0.6653 0.0574 0.0000
vt 0.9428 0.3407 0.0000
vt 0.4457 0.0280 0.0000
vt 0.4171 0.0296 0.0000
vt 0.7313 0.0382 0.0000
vt 0.9620 0.2958 0.0000
vt 0.4430 0.0239 0.0000
vt 0.4189 0.0262 0.0000
vt 0.7943 0.0337 0.0000
vt 0.8520 0.0414 0.0000
vt 0.4397 0.0207 0.0000
vt 0.4212 0.0230 0.0000
vt 0.9749 0.2480 0.0000
vt 0.9039 0.0637 0.0000
vt 0.4245 0.0200 0.0000
vt 0.4359 0.0185 0.0000
vt 0.4284 0.0182 0.0000
vt 0.4314 0.0177 0.0000
vt 0.9779 0.1909 0.0000
# 108 texture coords

o C_Rug2
g C_Rug2
usemtl C_Rug
s 1
f 38/59/38 39/60/39 40/61/40 
f 41/62/41 38/59/38 40/61/40 42/63/42 
f 43/64/43 40/61/40 39/60/39 44/65/44 
f 40/61/40 45/66/45 42/63/42 
f 46/67/46 41/62/41 42/63/42 47/68/47 
f 47/68/47 48/69/48 46/67/46 
f 47/68/47 49/70/49 50/71/50 48/69/48 
f 48/69/48 50/71/50 51/72/51 52/73/52 
f 53/74/53 52/73/52 51/72/51 54/75/54 
f 53/74/53 54/75/54 55/76/55 56/77/56 
f 56/77/56 55/76/55 57/78/57 58/79/58 
f 58/79/58 57/78/57 59/80/59 60/81/60 
f 60/81/60 59/80/59 61/82/61 62/83/62 
f 62/83/62 61/82/61 63/84/63 64/85/64 
f 64/85/64 63/84/63 65/86/65 66/87/66 
f 66/87/66 65/86/65 67/88/67 68/89/68 
f 69/90/69 70/91/70 71/92/71 
f 71/92/71 70/91/70 72/93/72 73/94/73 
f 69/90/69 71/92/71 74/95/74 75/96/75 
f 75/96/75 74/95/74 76/97/76 77/98/77 
f 68/89/68 67/88/67 77/98/77 76/97/76 
f 78/99/78 43/99/43 44/99/44 
f 78/100/78 45/66/45 40/61/40 43/64/43 
f 39/60/39 38/59/38 79/101/79 44/65/44 
f 78/102/78 44/103/44 79/104/79 80/105/80 
f 45/66/45 78/100/78 80/106/80 42/63/42 
f 79/101/79 38/59/38 41/62/41 81/107/81 
f 82/108/82 80/105/80 79/104/79 81/109/81 
f 47/68/47 42/63/42 80/106/80 82/110/82 
f 81/107/81 41/62/41 46/67/46 83/111/83 
f 84/112/84 82/108/82 81/109/81 83/113/83 
f 49/70/49 47/68/47 82/110/82 84/114/84 
f 46/67/46 48/69/48 85/115/85 83/111/83 
f 86/116/86 84/112/84 83/113/83 85/117/85 
f 50/71/50 49/70/49 84/114/84 86/118/86 
f 48/69/48 52/73/52 87/119/87 85/115/85 
f 88/120/88 86/116/86 85/117/85 87/121/87 
f 51/72/51 50/71/50 86/118/86 88/122/88 
f 54/75/54 51/72/51 88/122/88 89/123/89 
f 87/119/87 52/73/52 53/74/53 90/124/90 
f 89/125/89 87/121/87 90/126/90 
f 89/125/89 88/120/88 87/121/87 
f 90/124/90 53/74/53 56/77/56 91/127/91 
f 92/128/92 89/125/89 90/126/90 91/129/91 
f 55/76/55 54/75/54 89/123/89 92/130/92 
f 91/127/91 56/77/56 58/79/58 93/131/93 
f 94/132/94 92/128/92 91/129/91 93/133/93 
f 57/78/57 55/76/55 92/130/92 94/134/94 
f 93/131/93 58/79/58 60/81/60 95/135/95 
f 96/136/96 94/132/94 93/133/93 95/137/95 
f 59/80/59 57/78/57 94/134/94 96/138/96 
f 97/139/97 96/136/96 95/137/95 
f 61/82/61 59/80/59 96/138/96 97/140/97 
f 95/135/95 60/81/60 62/83/62 98/141/98 
f 97/139/97 95/137/95 98/142/98 99/143/99 
f 63/84/63 61/82/61 97/140/97 99/144/99 
f 98/141/98 62/83/62 64/85/64 100/145/100 
f 99/143/99 98/142/98 100/146/100 101/147/101 
f 65/86/65 63/84/63 99/144/99 101/148/101 
f 100/145/100 64/85/64 66/87/66 102/149/102 
f 103/150/103 101/147/101 100/146/100 102/151/102 
f 67/88/67 65/86/65 101/148/101 103/152/103 
f 66/87/66 68/89/68 104/153/104 102/149/102 
f 105/154/105 103/150/103 102/151/102 104/155/104 
f 77/98/77 67/88/67 103/152/103 105/156/105 
f 75/96/75 77/98/77 105/156/105 106/157/106 
f 106/158/106 105/154/105 104/155/104 107/159/107 
f 68/89/68 76/97/76 107/160/107 104/153/104 
f 69/90/69 75/96/75 106/157/106 108/161/108 
f 106/158/106 107/159/107 109/162/109 108/163/108 
f 70/91/70 69/90/69 108/161/108 72/93/72 
f 109/162/109 73/164/73 72/165/72 108/163/108 
f 71/92/71 73/94/73 109/166/109 74/95/74 
f 76/97/76 74/95/74 109/166/109 107/160/107 
# 66 polygons - 8 triangles

#
# object C_Rug3
#

v  106.5615 185.3006 -0.2679
v  105.7941 186.1425 -0.6667
v  105.6874 41.1227 -0.8666
v  106.0056 41.5925 -0.2630
v  344.5128 186.0376 -0.3843
v  344.2094 41.1736 -0.2784
v  344.1922 186.0638 -0.8993
v  344.6253 41.1135 -0.9691
# 8 vertices

vn -0.1832 0.1649 0.9692
vn -0.6930 0.7107 -0.1214
vn -0.6469 -0.7010 -0.3001
vn -0.4269 -0.3410 0.8375
vn 0.7330 0.5422 0.4109
vn 0.3871 -0.5802 0.7166
vn 0.3841 0.6311 -0.6740
vn 0.7173 -0.5728 -0.3967
# 8 vertex normals

vt 0.0309 0.9732 0.0000
vt 0.0232 0.9799 0.0000
vt 0.0226 0.5974 0.0000
vt 0.0282 0.6034 0.0000
vt 0.9446 0.9750 0.0000
vt 0.9456 0.6061 0.0000
vt 0.9511 0.9839 0.0000
vt 0.0000 0.0000 0.0000
vt 0.9519 0.6018 0.0000
# 9 texture coords

o C_Rug3
g C_Rug3
usemtl C_Rug
s 1
f 110/167/110 111/168/111 112/169/112 113/170/113 
f 114/171/114 110/167/110 113/170/113 115/172/115 
f 111/168/111 110/167/110 114/171/114 116/173/116 
f 112/174/112 111/174/111 116/174/116 117/174/117 
f 114/171/114 115/172/115 117/175/117 116/173/116 
f 113/170/113 112/169/112 117/175/117 115/172/115 
# 6 polygons

