# 3ds Max Wavefront OBJ Exporter v0.99 - (c)2007 guruware
# File Created: 13.08.2024 11:28:31

mtllib B_MapPiece2.mtl

#
# object B_MapPiece2
#

v  4.7881 4.0795 0.5360
v  4.7913 2.2896 0.4051
v  7.1868 2.3078 0.2518
v  7.1833 4.5498 0.5830
v  -0.0025 4.6598 0.0195
v  0.0003 2.3365 0.0996
v  2.3958 2.2993 0.4221
v  2.3928 4.5425 0.4225
v  9.5823 2.3542 0.1657
v  9.5786 4.6750 0.6879
v  4.7945 0.0232 0.0130
v  7.1903 0.2262 -0.0640
v  7.1798 6.8226 0.7426
v  4.7848 6.3217 0.5695
v  0.1267 0.0887 0.2852
v  2.3988 0.0183 0.1268
v  2.3898 7.0583 0.3557
v  -0.0052 6.9833 0.0058
v  9.5749 6.9956 0.9712
v  9.5861 0.0331 -0.2341
# 20 vertices

vn -0.0199 -0.0490 0.9986
vn 0.0230 -0.1143 0.9932
vn 0.0349 -0.1546 0.9874
vn -0.0177 -0.1079 0.9940
vn -0.1522 0.0167 0.9882
vn -0.0945 -0.0034 0.9955
vn -0.0453 -0.0478 0.9978
vn -0.0999 0.0031 0.9950
vn 0.0251 -0.1721 0.9848
vn -0.0315 -0.1385 0.9899
vn 0.0405 -0.1548 0.9871
vn 0.0513 -0.1602 0.9857
vn -0.0515 -0.0719 0.9961
vn -0.0522 -0.0173 0.9985
vn -0.0357 -0.0252 0.9990
vn -0.0040 -0.0884 0.9961
vn -0.1152 0.0120 0.9933
vn -0.1551 0.0162 0.9878
vn -0.0632 -0.0959 0.9934
vn 0.0478 -0.1601 0.9859
# 20 vertex normals

vt 0.7456 0.7343 0.0000
vt 0.7465 0.6206 0.0000
vt 0.8637 0.6216 0.0000
vt 0.8628 0.7352 0.0000
vt 0.5112 0.7324 0.0000
vt 0.5120 0.6187 0.0000
vt 0.6292 0.6197 0.0000
vt 0.6284 0.7333 0.0000
vt 0.9809 0.6225 0.0000
vt 0.9800 0.7361 0.0000
vt 0.7473 0.5070 0.0000
vt 0.8645 0.5080 0.0000
vt 0.8619 0.8488 0.0000
vt 0.7447 0.8479 0.0000
vt 0.5129 0.5050 0.0000
vt 0.6301 0.5060 0.0000
vt 0.6275 0.8470 0.0000
vt 0.5103 0.8461 0.0000
vt 0.9791 0.8497 0.0000
vt 0.9818 0.5089 0.0000
# 20 texture coords

o B_MapPiece2
g B_MapPiece2
usemtl Map
s 1
f 1/1/1 2/2/2 3/3/3 4/4/4 
f 5/5/5 6/6/6 7/7/7 8/8/8 
f 8/8/8 7/7/7 2/2/2 1/1/1 
f 9/9/9 10/10/10 4/4/4 3/3/3 
f 2/2/2 11/11/11 12/12/12 3/3/3 
f 4/4/4 13/13/13 14/14/14 1/1/1 
f 6/6/6 15/15/15 16/16/16 7/7/7 
f 8/8/8 17/17/17 18/18/18 5/5/5 
f 7/7/7 16/16/16 11/11/11 2/2/2 
f 1/1/1 14/14/14 17/17/17 8/8/8 
f 10/10/10 19/19/19 13/13/13 4/4/4 
f 3/3/3 12/12/12 20/20/20 9/9/9 
# 12 polygons

