# 3ds Max Wavefront OBJ Exporter v0.99 - (c)2007 guruware
# File Created: 09.07.2024 15:51:50

mtllib poto frame.mtl

#
# object Line003
#

v  -0.5768 0.7041 0.0813
v  -0.5768 -0.7052 0.0813
v  -0.5956 -0.7272 0.0804
v  -0.5956 0.7260 0.0805
v  -0.5945 -0.7272 -0.0812
v  -0.5945 0.7260 -0.0812
v  -0.4230 0.5524 -0.0809
v  -0.4263 -0.5544 -0.0809
v  -0.4245 -0.5555 -0.0420
v  -0.4241 0.5533 -0.0420
v  -0.4719 0.5965 -0.0202
v  -0.4719 -0.5976 -0.0202
v  -0.4750 -0.6004 0.0081
v  -0.4750 0.5992 0.0081
v  -0.4828 -0.6087 0.0150
v  -0.4828 0.6075 0.0150
v  -0.5313 -0.6612 0.0268
v  -0.5313 0.6601 0.0268
v  -0.5436 -0.6713 0.0522
v  -0.5436 0.6702 0.0522
v  -0.5586 -0.6887 0.0553
v  -0.5586 0.6875 0.0553
v  -0.5617 -0.6968 0.0654
v  -0.5617 0.6957 0.0654
v  -0.4513 -0.5813 -0.0400
v  -0.4534 0.5827 -0.0400
v  0.5945 0.7260 -0.0812
v  0.5956 0.7260 0.0805
v  0.4241 0.5533 -0.0420
v  0.4230 0.5524 -0.0809
v  -0.4263 0.5533 -0.0809
v  -0.4245 0.5544 -0.0420
v  -0.4513 0.5802 -0.0400
v  0.4534 0.5827 -0.0400
v  0.4717 0.5965 -0.0202
v  0.4750 0.5992 0.0081
v  0.4877 0.6131 0.0150
v  0.5313 0.6601 0.0268
v  0.5436 0.6702 0.0522
v  0.5586 0.6875 0.0553
v  0.5617 0.6957 0.0654
v  0.5768 0.7041 0.0813
v  0.5764 0.7052 0.0812
v  0.5952 0.7272 0.0804
v  0.5952 -0.7260 0.0804
v  0.5764 -0.7041 0.0812
v  0.5941 0.7272 -0.0813
v  0.5941 -0.7260 -0.0812
v  0.4226 0.5535 -0.0810
v  0.4237 0.5544 -0.0421
v  0.4241 -0.5544 -0.0420
v  0.4258 -0.5533 -0.0810
v  0.4715 0.5976 -0.0203
v  0.4746 0.6004 0.0080
v  0.4746 -0.5992 0.0080
v  0.4715 -0.5965 -0.0203
v  0.4824 0.6087 0.0149
v  0.4824 -0.6075 0.0149
v  0.5309 0.6612 0.0267
v  0.5309 -0.6601 0.0267
v  0.5432 0.6713 0.0521
v  0.5432 -0.6702 0.0521
v  0.5582 0.6887 0.0552
v  0.5582 -0.6875 0.0552
v  0.5613 0.6968 0.0653
v  0.5613 -0.6957 0.0653
v  0.4530 0.5838 -0.0401
v  0.4509 -0.5802 -0.0400
v  -0.5956 -0.7272 0.0805
v  0.5956 -0.7272 0.0805
v  0.5945 -0.7272 -0.0812
v  0.4230 -0.5535 -0.0809
v  0.4534 -0.5838 -0.0400
v  0.4717 -0.5976 -0.0202
v  0.4750 -0.6003 0.0081
v  0.4877 -0.6142 0.0150
v  0.5313 -0.6612 0.0268
v  0.5436 -0.6713 0.0522
v  0.5586 -0.6887 0.0553
v  0.5617 -0.6968 0.0654
v  0.5768 -0.7052 0.0813
v  -0.4374 -0.5761 -0.0642
v  -0.4374 0.5697 -0.0642
v  0.4386 0.5697 -0.0642
v  0.4386 -0.5761 -0.0642
# 85 vertices

vn 0.0000 0.0424 0.9991
vn 0.5791 0.5895 0.5632
vn -0.5791 0.5895 0.5632
vn 0.7082 0.7060 -0.0049
vn -0.7084 0.7058 -0.0049
vn 0.0020 -1.0000 -0.0081
vn -0.0003 -0.9264 0.3766
vn -0.0003 -0.9287 0.3709
vn -0.0000 -0.8538 0.5207
vn -0.0000 -0.8538 0.5206
vn -0.0000 -0.3748 0.9271
vn -0.0000 -0.2363 0.9717
vn -0.0000 -0.9009 0.4340
vn -0.0000 -0.2021 0.9794
vn -0.0000 -0.9560 0.2934
vn -0.0000 -0.8261 0.5636
vn -0.0000 -0.7260 0.6877
vn -0.0001 -0.0712 0.9975
vn -0.0006 -0.5415 0.8407
vn -0.0006 -0.5427 0.8399
vn -0.6647 0.5356 0.5209
vn -0.7720 0.6356 -0.0044
vn -0.7722 -0.6354 -0.0044
vn -0.6647 -0.5356 0.5209
vn 0.9998 0.0010 0.0209
vn 0.0880 -0.0001 0.9961
vn 0.7283 -0.0008 0.6853
vn 0.7239 -0.0008 0.6899
vn 0.9714 -0.0003 0.2373
vn 0.9705 -0.0003 0.2411
vn 0.8282 -0.0009 0.5605
vn 0.8232 -0.0010 0.5677
vn 0.3717 -0.0009 0.9283
vn 0.3645 -0.0008 0.9312
vn 0.2777 -0.0006 0.9607
vn 0.9505 0.0000 0.3106
vn 0.2128 -0.0000 0.9771
vn 0.8333 -0.0000 0.5528
vn 0.8901 -0.0000 0.4557
vn 0.9178 -0.0000 0.3971
vn -0.0444 0.0000 0.9990
vn 0.0000 -0.0424 0.9991
vn -0.5791 -0.5895 0.5632
vn 0.5791 -0.5895 0.5632
vn -0.7084 -0.7058 -0.0049
vn 0.7082 -0.7060 -0.0049
vn 0.0020 1.0000 -0.0081
vn -0.0003 0.9264 0.3766
vn -0.0000 0.8538 0.5207
vn -0.0003 0.9287 0.3709
vn -0.0000 0.3748 0.9271
vn -0.0000 0.2363 0.9717
vn -0.0000 0.9009 0.4340
vn 0.0000 0.2021 0.9794
vn -0.0000 0.9560 0.2934
vn -0.0000 0.8261 0.5636
vn -0.0000 0.7260 0.6877
vn -0.0001 0.0712 0.9975
vn -0.0006 0.5427 0.8399
vn -0.0006 0.5415 0.8407
vn 0.6647 0.5356 0.5209
vn 0.6647 -0.5356 0.5209
vn 0.7722 -0.6354 -0.0044
vn 0.7720 0.6356 -0.0044
vn -0.9998 0.0010 0.0209
vn -0.0880 -0.0001 0.9961
vn -0.7239 -0.0008 0.6899
vn -0.7283 -0.0008 0.6853
vn -0.9705 -0.0003 0.2411
vn -0.9714 -0.0003 0.2373
vn -0.8232 -0.0010 0.5677
vn -0.8282 -0.0009 0.5605
vn -0.3645 -0.0008 0.9312
vn -0.3717 -0.0009 0.9283
vn -0.2777 -0.0006 0.9607
vn -0.9505 0.0000 0.3106
vn -0.2128 0.0000 0.9771
vn -0.8333 0.0000 0.5528
vn -0.8901 0.0000 0.4557
vn -0.9178 0.0000 0.3971
vn 0.0444 0.0000 0.9990
vn 0.0000 0.0000 1.0000
# 82 vertex normals

vt 0.1431 0.1482 0.0000
vt 0.1438 0.8467 0.0000
vt 0.1284 0.8568 0.0000
vt 0.1277 0.1434 0.0000
vt 0.0131 0.8570 0.0000
vt 0.0124 0.1435 0.0000
vt 0.3267 0.2264 0.0000
vt 0.3271 0.7699 0.0000
vt 0.2994 0.7706 0.0000
vt 0.2989 0.2260 0.0000
vt 0.2589 0.2048 0.0000
vt 0.2594 0.7960 0.0000
vt 0.2391 0.7976 0.0000
vt 0.2386 0.1949 0.0000
vt 0.2316 0.8016 0.0000
vt 0.2310 0.1908 0.0000
vt 0.1969 0.8250 0.0000
vt 0.1963 0.1759 0.0000
vt 0.1774 0.8303 0.0000
vt 0.1768 0.1653 0.0000
vt 0.1678 0.8367 0.0000
vt 0.1671 0.1613 0.0000
vt 0.1603 0.8385 0.0000
vt 0.1596 0.1573 0.0000
vt 0.2794 0.7871 0.0000
vt 0.2789 0.2152 0.0000
vt 0.2994 0.7545 0.0000
vt 0.3271 0.7557 0.0000
vt 0.3267 0.2447 0.0000
vt 0.2989 0.2457 0.0000
vt 0.2789 0.2304 0.0000
vt 0.2794 0.7724 0.0000
vt 0.2589 0.2186 0.0000
vt 0.2594 0.7839 0.0000
vt 0.2386 0.2148 0.0000
vt 0.2391 0.7879 0.0000
vt 0.2311 0.2094 0.0000
vt 0.2316 0.7927 0.0000
vt 0.1963 0.1827 0.0000
vt 0.1969 0.8185 0.0000
vt 0.1768 0.1752 0.0000
vt 0.1774 0.8259 0.0000
vt 0.1671 0.1679 0.0000
vt 0.1678 0.8330 0.0000
vt 0.1596 0.1654 0.0000
vt 0.1603 0.8355 0.0000
vt 0.1431 0.1550 0.0000
vt 0.1438 0.8456 0.0000
vt 0.3488 0.1359 0.0000
vt 0.3488 0.8663 0.0000
vt 0.9883 0.8663 0.0000
vt 0.9883 0.1359 0.0000
# 52 texture coords

o Line003
g Line003
usemtl poto_frame
s 2
f 4/4/3 3/3/2 2/2/1 1/1/1 
s 4
f 6/6/5 5/5/4 3/3/2 4/4/3 
f 10/10/6 9/9/6 8/8/6 7/7/6 
s 2
f 14/14/10 13/13/9 12/12/8 11/11/7 
f 16/16/11 15/15/11 13/13/9 14/14/10 
f 18/18/12 17/17/12 15/15/11 16/16/11 
s 4
f 20/20/13 19/19/13 17/17/13 18/18/13 
s 2
f 22/22/14 21/21/14 19/19/14 20/20/14 
s 4
f 24/24/16 23/23/16 21/21/15 22/22/15 
f 1/1/17 2/2/17 23/23/16 24/24/16 
s 2
f 26/26/20 25/25/19 9/9/18 10/10/18 
f 11/11/7 12/12/8 25/25/19 26/26/20 
s 4
f 28/3/24 27/5/23 6/6/22 4/4/21 
f 32/30/25 31/29/25 30/28/25 29/27/25 
s 2
f 29/27/26 34/32/28 33/31/27 32/30/26 
f 34/32/28 35/34/30 11/33/29 33/31/27 
f 35/34/30 36/36/32 14/35/31 11/33/29 
f 36/36/32 37/38/34 16/37/33 14/35/31 
f 37/38/34 38/40/35 18/39/35 16/37/33 
s 4
f 38/40/36 39/42/36 20/41/36 18/39/36 
s 2
f 39/42/37 40/44/37 22/43/37 20/41/37 
s 4
f 40/44/38 41/46/39 24/45/39 22/43/38 
f 41/46/39 42/48/40 1/47/40 24/45/39 
s 2
f 42/48/41 28/3/24 4/4/21 1/47/41 
f 46/2/42 45/3/44 44/4/43 43/1/42 
s 4
f 45/3/44 48/5/46 47/6/45 44/4/43 
f 52/8/47 51/9/47 50/10/47 49/7/47 
s 2
f 56/12/50 55/13/49 54/14/49 53/11/48 
f 55/13/49 58/15/51 57/16/51 54/14/49 
f 58/15/51 60/17/52 59/18/52 57/16/51 
s 4
f 60/17/53 62/19/53 61/20/53 59/18/53 
s 2
f 62/19/54 64/21/54 63/22/54 61/20/54 
s 4
f 64/21/55 66/23/56 65/24/56 63/22/55 
f 66/23/56 46/2/57 43/1/57 65/24/56 
s 2
f 51/9/58 68/25/60 67/26/59 50/10/58 
f 68/25/60 56/12/50 53/11/48 67/26/59 
s 4
f 5/6/64 71/5/63 70/3/62 69/4/61 
f 72/28/65 8/29/65 9/30/65 51/27/65 
s 2
f 25/31/68 73/32/67 51/27/66 9/30/66 
f 12/33/70 74/34/69 73/32/67 25/31/68 
f 13/35/72 75/36/71 74/34/69 12/33/70 
f 15/37/74 76/38/73 75/36/71 13/35/72 
f 17/39/75 77/40/75 76/38/73 15/37/74 
s 4
f 19/41/76 78/42/76 77/40/76 17/39/76 
s 2
f 21/43/77 79/44/77 78/42/77 19/41/77 
s 4
f 23/45/79 80/46/79 79/44/78 21/43/78 
f 2/47/80 81/48/80 80/46/79 23/45/79 
s 2
f 69/4/61 70/3/62 81/48/81 2/47/81 
s 1
f 85/52/82 84/51/82 83/50/82 82/49/82 
# 49 polygons

