# 3ds Max Wavefront OBJ Exporter v0.99 - (c)2007 guruware
# File Created: 12.07.2024 01:02:13

mtllib ????\B_O_SketchBook_.mtl

#
# object SketchBook1_
#

v  196.9785 17.1111 -131.1640
v  190.0160 17.4296 -138.5358
v  177.3201 16.9560 -139.7643
v  196.5689 10.2400 -107.4102
v  162.1669 12.0094 -138.5358
v  197.3881 1.2179 -73.4177
v  197.3881 0.0115 -47.2066
v  29.0641 -0.0000 -138.9454
v  191.2448 0.0082 -36.1487
v  -160.9661 14.4756 131.7654
v  -148.2702 9.5901 134.6322
v  -139.6696 7.4170 127.6700
v  -129.2513 2.2800 -127.7205
v  -136.8027 0.9941 -136.8974
v  -130.6593 1.9321 -131.5736
v  -117.1445 3.9155 -119.6965
v  -117.9634 3.8418 -127.0683
v  -123.2876 3.0012 -129.1163
v  -131.8882 5.9486 127.6700
v  -83.5617 7.0668 -116.0108
v  -89.2954 7.1731 -121.7442
v  -105.6771 5.6776 -125.0207
v  -60.2174 6.1691 -117.2393
v  -102.4006 1.3437 128.0796
v  -40.9686 3.1903 -123.3826
v  -56.5314 5.3938 -122.1538
v  -103.2198 0.6799 134.2230
v  -93.3907 0.0459 138.7279
v  -49.3272 0.0026 138.6335
v  -41.1187 4.5389 -19.0060
v  189.6064 8.6240 139.1375
v  196.5689 9.0789 133.4038
v  -33.3872 7.6438 -75.2366
v  197.5109 6.0625 79.3983
v  -34.8256 1.9127 -127.0683
v  6.9483 0.4205 -127.4779
v  196.1052 0.9004 47.0654
v  183.0538 0.4215 -38.1967
v  22.1408 0.2244 -132.5219
v  195.7497 0.0083 -14.0333
v  190.8336 0.1739 -13.0313
v  182.6442 0.3007 -24.6816
v  184.6922 0.1135 -30.4153
v  189.1971 0.0099 -24.2720
v  -196.8851 19.3443 89.6043
v  -198.7437 18.1534 126.0042
v  -189.2249 16.3144 138.3183
v  -191.6385 3.8580 -19.9136
v  -190.8517 8.4006 47.2294
v  -162.6042 16.3196 137.4991
v  -189.6345 0.0003 -138.9454
v  -197.4192 4.7792 -19.2944
v  -196.5584 4.0508 28.6502
v  -197.0063 0.0003 -131.9829
v  -196.8396 0.0637 -55.6036
# 55 vertices

vn -0.2389 0.9339 0.2660
vn -0.0454 0.9953 0.0859
vn -0.1988 0.9293 0.3112
vn -0.1026 0.9601 0.2603
vn -0.1590 0.9565 0.2445
vn 0.1570 0.9845 0.0782
vn -0.0103 0.9998 0.0188
vn -0.0087 0.9998 0.0185
vn 0.0144 0.9996 -0.0228
vn 0.6562 0.7538 0.0336
vn 0.3330 0.9353 0.1194
vn 0.2656 0.9641 0.0075
vn -0.1285 0.9914 -0.0254
vn -0.0486 0.9974 -0.0538
vn -0.1082 0.9929 -0.0501
vn -0.1145 0.9934 0.0015
vn -0.1589 0.9873 0.0078
vn -0.1335 0.9893 -0.0591
vn 0.1704 0.9854 0.0021
vn -0.0396 0.9984 0.0392
vn -0.1168 0.9839 0.1351
vn -0.1089 0.9897 0.0929
vn 0.1200 0.9924 0.0253
vn 0.7130 0.6886 0.1320
vn 0.1660 0.9861 0.0033
vn 0.1358 0.9893 -0.0542
vn 0.1011 0.9943 0.0341
vn 0.0272 0.9995 0.0174
vn -0.0169 0.9995 0.0279
vn -0.3625 0.9319 0.0151
vn -0.0385 0.9988 0.0304
vn -0.0069 1.0000 0.0008
vn -0.3326 0.9406 -0.0678
vn 0.0563 0.9949 -0.0833
vn 0.0909 0.9911 -0.0974
vn 0.0271 0.9991 -0.0321
vn 0.1125 0.9859 -0.1241
vn 0.0362 0.9973 -0.0638
vn 0.0095 0.9998 -0.0153
vn 0.0307 0.9994 -0.0148
vn 0.0358 0.9992 -0.0157
vn 0.0046 1.0000 0.0010
vn 0.1262 0.9919 0.0127
vn 0.0456 0.9987 -0.0212
vn 0.8544 0.5093 -0.1027
vn 0.1400 0.9894 0.0395
vn 0.0969 0.9936 -0.0588
vn -0.3541 0.9340 -0.0468
vn -0.2648 0.9618 -0.0694
vn 0.1151 0.9894 -0.0890
vn -0.0351 0.9987 -0.0382
vn 0.1518 0.9871 -0.0516
vn -0.6011 0.7992 -0.0025
vn -0.0008 1.0000 -0.0008
vn -0.8627 0.5001 -0.0750
# 55 vertex normals

vt 0.6163 0.9908 0.0000
vt 0.6058 0.9815 0.0000
vt 0.6033 0.9639 0.0000
vt 0.6506 0.9883 0.0000
vt 0.6057 0.9418 0.0000
vt 0.6993 0.9870 0.0000
vt 0.7354 0.9860 0.0000
vt 0.6006 0.7561 0.0000
vt 0.7502 0.9770 0.0000
vt 0.9790 0.5061 0.0000
vt 0.9771 0.5170 0.0000
vt 0.9667 0.5275 0.0000
vt 0.6114 0.5207 0.0000
vt 0.5993 0.5064 0.0000
vt 0.6057 0.5170 0.0000
vt 0.6223 0.5405 0.0000
vt 0.6116 0.5376 0.0000
vt 0.6093 0.5299 0.0000
vt 0.9669 0.5349 0.0000
vt 0.6268 0.5893 0.0000
vt 0.6188 0.5804 0.0000
vt 0.6146 0.5575 0.0000
vt 0.6254 0.6253 0.0000
vt 0.9744 0.5613 0.0000
vt 0.6186 0.6543 0.0000
vt 0.6188 0.6318 0.0000
vt 0.9766 0.5696 0.0000
vt 0.9831 0.5810 0.0000
vt 0.9836 0.6400 0.0000
vt 0.7644 0.6533 0.0000
vt 0.9899 0.9706 0.0000
vt 0.9832 0.9793 0.0000
vt 0.6865 0.6658 0.0000
vt 0.9092 0.9815 0.0000
vt 0.6142 0.6650 0.0000
vt 0.6154 0.7240 0.0000
vt 0.8649 0.9807 0.0000
vt 0.7468 0.9658 0.0000
vt 0.6090 0.7459 0.0000
vt 0.7802 0.9826 0.0000
vt 0.7815 0.9757 0.0000
vt 0.7652 0.9647 0.0000
vt 0.7575 0.9677 0.0000
vt 0.7660 0.9738 0.0000
vt 0.9200 0.4433 0.0000
vt 0.9704 0.4475 0.0000
vt 0.9856 0.4632 0.0000
vt 0.7666 0.4391 0.0000
vt 0.8591 0.4527 0.0000
vt 0.9815 0.5016 0.0000
vt 0.6017 0.4276 0.0000
vt 0.7684 0.4315 0.0000
vt 0.8336 0.4436 0.0000
vt 0.6120 0.4182 0.0000
vt 0.7178 0.4267 0.0000
# 55 texture coords

o SketchBook1_
g SketchBook1_
usemtl sketchbook_
s 1
f 1/1/1 2/2/2 3/3/3 4/4/4 
f 4/4/4 3/3/3 5/5/5 6/6/6 
f 7/7/7 6/6/6 5/5/5 8/8/8 
f 9/9/9 7/7/7 8/8/8 
f 10/10/10 11/11/11 12/12/12 
f 10/10/10 12/12/12 13/13/13 14/14/14 
f 13/13/13 15/15/15 14/14/14 
f 16/16/16 17/17/17 18/18/18 13/13/13 
f 16/16/16 13/13/13 12/12/12 19/19/19 
f 20/20/20 21/21/21 22/22/22 16/16/16 
f 23/23/23 20/20/20 24/24/24 
f 16/16/16 19/19/19 24/24/24 20/20/20 
f 25/25/25 26/26/26 23/23/23 
f 23/23/23 24/24/24 27/27/27 25/25/25 
f 25/25/25 27/27/27 28/28/28 
f 28/28/28 29/29/29 30/30/30 25/25/25 
f 30/30/30 29/29/29 31/31/31 
f 30/30/30 31/31/31 32/32/32 33/33/33 
f 34/34/34 35/35/35 33/33/33 32/32/32 
f 33/33/33 35/35/35 25/25/25 30/30/30 
f 36/36/36 35/35/35 34/34/34 37/37/37 
f 38/38/38 9/9/9 8/8/8 39/39/39 
f 37/37/37 40/40/40 41/41/41 
f 39/39/39 36/36/36 37/37/37 
f 42/42/42 43/43/43 38/38/38 39/39/39 
f 37/37/37 41/41/41 42/42/42 39/39/39 
f 41/41/41 44/44/44 42/42/42 
f 45/45/45 46/46/46 47/47/47 
f 48/48/48 49/49/49 50/50/50 51/51/51 
f 49/49/49 47/47/47 50/50/50 
f 48/48/48 52/52/52 53/53/53 49/49/49 
f 49/49/49 53/53/53 45/45/45 47/47/47 
f 10/10/10 14/14/14 51/51/51 50/50/50 
f 51/51/51 54/54/54 55/55/55 
f 55/55/55 52/52/52 48/48/48 51/51/51 
# 22 polygons - 13 triangles

#
# object charcoal_
#

v  776.4475 38.8242 -34.0411
v  805.4780 37.6772 -32.3338
v  806.2058 39.6902 -48.6034
v  776.0432 40.4118 -49.2060
v  776.2050 39.9576 -77.7279
v  806.1555 38.9296 -67.3747
v  806.1251 38.4693 -78.7322
v  776.6957 8.3490 -33.1865
v  804.6681 7.0962 -32.8655
v  775.5956 7.0716 -47.0054
v  806.0914 6.3246 -49.0727
v  776.2136 7.5569 -76.9620
v  775.9116 7.3197 -62.3215
v  804.8494 5.0668 -77.9465
v  792.0136 42.4961 -116.3375
v  786.6953 42.9961 -115.5695
v  782.9231 42.1434 -113.4191
v  799.6201 42.5024 -113.4191
v  796.0952 42.3314 -116.8752
v  802.5340 43.4900 -118.8301
v  806.9337 40.4399 -113.3802
v  806.3633 41.3951 -118.3286
v  807.7568 34.0908 -118.9474
v  775.8113 39.6233 -102.8204
v  806.4844 40.2604 -103.3581
v  806.9150 25.3785 -112.3412
v  808.1112 27.0107 -117.2110
v  807.6625 20.0694 -119.0243
v  806.9106 14.6057 -111.6296
v  779.2924 37.3232 -128.0258
v  776.6578 39.4577 -120.1732
v  783.1637 40.8886 -114.5259
v  796.4514 40.8745 -117.9527
v  805.1766 39.7350 -121.5465
v  805.2878 39.8437 -118.0355
v  803.8051 37.2585 -127.0625
v  798.8759 32.0782 -141.9861
v  782.3660 33.1306 -138.3870
v  805.8879 7.8623 -116.5475
v  805.4952 7.7852 -121.7058
v  803.4380 9.6985 -130.1004
v  804.9332 5.4054 -120.1541
v  804.6736 6.6986 -121.5671
v  800.2919 12.8725 -138.1304
v  799.3348 14.5859 -143.7367
v  797.5941 19.7639 -149.9386
v  798.8416 15.4781 -147.3234
v  776.5994 6.7226 -119.1136
v  778.0206 8.6499 -128.3462
v  780.5968 11.8999 -136.6149
v  781.6272 12.6591 -140.4580
v  779.3802 29.6557 -132.9338
v  783.0817 14.1164 -144.2130
v  781.2204 28.5321 -139.9375
v  783.2043 15.3967 -147.5549
v  794.4349 16.7112 -151.4989
v  795.7144 25.8345 -151.2566
v  784.4736 27.9113 -150.6022
v  789.6002 21.9772 -152.4561
v  773.0166 21.8882 -121.4365
v  772.5681 11.9310 -124.1333
v  773.6798 15.5308 -116.2562
v  775.4246 38.6766 -112.4107
v  774.3273 38.5204 -119.2561
v  773.7520 33.2223 -119.6960
v  774.9044 32.1812 -116.4023
v  772.8931 6.2783 -122.4721
v  774.4515 7.5747 -116.3919
v  774.1450 4.4824 -122.1841
v  774.6170 6.4375 -116.9949
v  775.6111 8.0171 -102.4437
v  775.0335 8.1454 -111.9722
v  805.4434 5.8275 -102.2130
v  808.2438 12.8620 -116.8152
v  805.5185 5.6488 -111.1098
v  776.1570 5.3323 -115.6632
v  780.2012 7.6802 -102.4082
v  807.2304 6.6278 -120.4046
v  805.2489 4.5650 -119.6371
v  801.2469 4.0942 -120.2057
v  797.7422 2.9887 -118.9379
v  789.0497 3.5294 -114.9695
v  789.5021 3.6201 -120.9112
v  792.4744 4.1098 -120.3569
v  781.4283 3.3877 -120.5200
v  780.4218 6.3709 -113.1245
v  785.9913 2.9765 -120.6431
v  784.3475 7.3759 -102.3761
# 88 vertices

vn -0.5810 0.5602 0.5904
vn 0.5696 0.5120 0.6430
vn 0.7026 0.7099 0.0484
vn -0.6847 0.7277 0.0410
vn -0.6896 0.7241 -0.0104
vn 0.7368 0.6754 -0.0313
vn 0.7487 0.6627 0.0178
vn -0.5581 -0.5329 0.6360
vn 0.5217 -0.5909 0.6154
vn -0.7195 -0.6923 0.0548
vn 0.7158 -0.6964 0.0509
vn -0.7264 -0.6872 -0.0129
vn -0.7321 -0.6805 -0.0304
vn 0.6504 -0.7595 -0.0061
vn 0.0526 0.9836 -0.1725
vn 0.1335 0.7768 0.6155
vn -0.1359 0.9771 0.1639
vn 0.1172 0.9923 -0.0398
vn -0.0165 0.9994 -0.0311
vn 0.0946 0.8961 0.4337
vn 0.8010 0.5912 0.0945
vn 0.7276 0.6851 0.0352
vn 0.9926 0.1112 0.0486
vn -0.7285 0.6833 0.0479
vn 0.7174 0.6876 0.1118
vn 0.9841 0.0105 0.1773
vn 0.9539 0.0232 0.2992
vn 0.9942 -0.0276 0.1041
vn 0.9924 -0.0821 0.0912
vn -0.5104 0.7259 -0.4610
vn -0.5199 0.7661 -0.3779
vn -0.0411 0.9784 -0.2024
vn -0.0059 0.9565 -0.2918
vn 0.6846 0.6782 -0.2672
vn 0.7410 0.6696 -0.0510
vn 0.6461 0.5948 -0.4782
vn 0.5582 0.6388 -0.5294
vn -0.5029 0.7358 -0.4536
vn 0.9926 -0.0786 -0.0926
vn 0.9052 -0.3658 -0.2162
vn 0.6455 -0.6002 -0.4724
vn 0.6678 -0.4538 -0.5900
vn 0.3582 -0.7280 -0.5845
vn 0.6236 -0.6168 -0.4804
vn 0.7005 -0.6349 -0.3257
vn 0.6834 0.0005 -0.7300
vn 0.7460 -0.5179 -0.4186
vn -0.6865 -0.6715 -0.2789
vn -0.6695 -0.6438 -0.3705
vn -0.6489 -0.6272 -0.4307
vn -0.6032 -0.6716 -0.4302
vn -0.9309 0.1214 -0.3444
vn -0.5574 -0.7074 -0.4346
vn -0.9179 0.1894 -0.3486
vn -0.6960 -0.5104 -0.5050
vn 0.1657 -0.5288 -0.8324
vn 0.4157 0.3687 -0.8314
vn -0.4645 0.4933 -0.7354
vn -0.1119 -0.0607 -0.9919
vn -0.9793 0.0339 0.1996
vn -0.9843 -0.0079 0.1763
vn -0.9456 0.0139 0.3251
vn -0.8211 0.5678 0.0580
vn -0.8756 0.4545 0.1634
vn -0.9097 0.0505 0.4121
vn -0.9708 0.0255 0.2384
vn -0.9006 -0.2632 0.3458
vn -0.9476 -0.1970 0.2513
vn -0.5119 -0.7770 0.3663
vn -0.8252 -0.4909 0.2792
vn -0.7266 -0.6865 0.0264
vn -0.8054 -0.5382 0.2483
vn 0.6857 -0.7247 0.0679
vn 0.7801 0.1143 0.6151
vn 0.6514 -0.7497 0.1169
vn -0.2180 -0.9094 0.3543
vn -0.0624 -0.9966 0.0545
vn 0.8464 -0.5147 0.1365
vn 0.3948 -0.9126 0.1067
vn 0.2049 -0.9772 0.0565
vn 0.2957 -0.4095 0.8631
vn -0.0485 -0.9867 0.1554
vn 0.1460 -0.9893 -0.0021
vn -0.0375 -0.9892 -0.1419
vn -0.1228 -0.9484 0.2922
vn -0.2231 -0.9452 0.2385
vn 0.0018 -0.9949 0.1010
vn -0.0624 -0.9892 0.1329
# 88 vertex normals

vt 0.3054 0.3600 0.0000
vt 0.3164 0.4771 0.0000
vt 0.2632 0.4829 0.0000
vt 0.2562 0.3642 0.0000
vt 0.1639 0.3670 0.0000
vt 0.2023 0.4849 0.0000
vt 0.1655 0.4862 0.0000
vt 0.3366 0.0852 0.0000
vt 0.4056 0.1911 0.0000
vt 0.3093 0.2489 0.0000
vt 0.2698 0.1512 0.0000
vt 0.2584 0.2567 0.0000
vt 0.2343 0.1439 0.0000
vt 0.2792 0.0431 0.0000
vt 0.1597 0.2580 0.0000
vt 0.2079 0.2574 0.0000
vt 0.1534 0.1427 0.0000
vt 0.1706 0.0291 0.0000
vt 0.2116 0.0344 0.0000
vt 0.0423 0.4341 0.0000
vt 0.0435 0.4129 0.0000
vt 0.0501 0.3977 0.0000
vt 0.0525 0.4640 0.0000
vt 0.0414 0.4503 0.0000
vt 0.0347 0.4756 0.0000
vt 0.0544 0.4937 0.0000
vt 0.0382 0.4921 0.0000
vt 0.0366 0.0366 0.0000
vt 0.0408 0.0115 0.0000
vt 0.0564 0.0166 0.0000
vt 0.0831 0.3675 0.0000
vt 0.0864 0.4901 0.0000
vt 0.0556 0.0677 0.0000
vt 0.0889 0.0194 0.0000
vt 0.0399 0.0608 0.0000
vt 0.0326 0.0835 0.0000
vt 0.0539 0.1045 0.0000
vt 0.2503 0.9048 0.0000
vt 0.2580 0.9581 0.0000
vt 0.1965 0.9713 0.0000
vt 0.1109 0.9152 0.0000
vt 0.0603 0.8658 0.0000
vt 0.0514 0.8854 0.0000
vt 0.0843 0.8298 0.0000
vt 0.1610 0.7534 0.0000
vt 0.2528 0.8355 0.0000
vt 0.4569 0.4555 0.0000
vt 0.5438 0.6379 0.0000
vt 0.5159 0.6480 0.0000
vt 0.4370 0.4629 0.0000
vt 0.4089 0.4883 0.0000
vt 0.4646 0.6512 0.0000
vt 0.5280 0.6633 0.0000
vt 0.5178 0.6596 0.0000
vt 0.3316 0.5570 0.0000
vt 0.4108 0.6537 0.0000
vt 0.3771 0.6543 0.0000
vt 0.3229 0.6496 0.0000
vt 0.3561 0.6550 0.0000
vt 0.4561 0.8687 0.0000
vt 0.4162 0.8339 0.0000
vt 0.3790 0.8002 0.0000
vt 0.3681 0.7864 0.0000
vt 0.2856 0.8655 0.0000
vt 0.3549 0.7721 0.0000
vt 0.2788 0.8260 0.0000
vt 0.3406 0.7642 0.0000
vt 0.3266 0.6813 0.0000
vt 0.2943 0.6189 0.0000
vt 0.2720 0.7630 0.0000
vt 0.2277 0.7014 0.0000
vt 0.2860 0.7134 0.0000
vt 0.2455 0.6627 0.0000
vt 0.0198 0.3107 0.0000
vt 0.0079 0.2794 0.0000
vt 0.0348 0.2880 0.0000
vt 0.0520 0.3654 0.0000
vt 0.0294 0.3641 0.0000
vt 0.0276 0.3475 0.0000
vt 0.0387 0.3438 0.0000
vt 0.0107 0.2615 0.0000
vt 0.0318 0.2618 0.0000
vt 0.0114 0.2559 0.0000
vt 0.0293 0.2588 0.0000
vt 0.0785 0.2595 0.0000
vt 0.0470 0.2610 0.0000
vt 0.0813 0.1375 0.0000
vt 0.0358 0.1080 0.0000
vt 0.0527 0.1357 0.0000
vt 0.0333 0.2526 0.0000
vt 0.0790 0.2407 0.0000
vt 0.0228 0.1278 0.0000
vt 0.0250 0.1378 0.0000
vt 0.0232 0.1531 0.0000
vt 0.0264 0.1669 0.0000
vt 0.0387 0.2017 0.0000
vt 0.0196 0.1992 0.0000
vt 0.0215 0.1877 0.0000
vt 0.0198 0.2300 0.0000
vt 0.0438 0.2382 0.0000
vt 0.0199 0.2129 0.0000
vt 0.0793 0.2238 0.0000
# 102 texture coords

o charcoal_
g charcoal_
usemtl sketchbook_
s 1
f 56/56/56 57/57/57 58/58/58 59/59/59 
f 60/60/60 61/61/61 62/62/62 
f 57/63/57 56/64/56 63/65/63 64/66/64 
f 56/56/56 59/59/59 65/67/65 63/65/63 
f 64/66/64 63/65/63 65/67/65 66/68/66 
f 57/63/57 64/66/64 66/68/66 58/69/58 
f 67/70/67 68/71/68 60/60/60 
f 68/71/68 67/70/67 69/72/69 
f 62/73/62 61/74/61 69/72/69 
f 70/75/70 71/76/71 72/77/72 73/78/73 
f 74/79/74 70/75/70 73/78/73 
f 75/80/75 74/79/74 73/78/73 76/81/76 
f 76/81/76 77/82/77 75/80/75 
f 78/83/78 77/84/77 76/85/76 
f 79/86/79 60/60/60 62/62/62 80/87/80 
f 72/77/72 79/86/79 80/87/80 73/78/73 
f 80/87/80 76/81/76 73/78/73 
f 81/88/81 76/85/76 80/89/80 
f 78/83/78 76/85/76 81/88/81 82/90/82 
f 83/91/83 82/90/82 81/88/81 84/92/84 
f 85/93/85 86/94/86 87/95/87 88/96/88 
f 89/97/89 88/96/88 90/98/90 
f 89/97/89 85/93/85 88/96/88 
f 85/93/85 89/97/89 91/99/91 
f 85/93/85 91/99/91 92/100/92 93/101/93 
f 90/102/90 94/103/94 95/104/95 89/105/89 
f 91/106/91 89/105/89 95/104/95 96/107/96 
f 95/104/95 94/103/94 97/108/97 98/109/98 
f 96/107/96 95/104/95 98/109/98 
f 92/110/92 91/106/91 96/107/96 99/111/99 
f 92/110/92 99/111/99 100/112/100 
f 101/113/101 92/110/92 100/112/100 102/114/102 
f 97/108/97 103/115/103 104/116/104 98/109/98 
f 96/107/96 98/109/98 104/116/104 105/117/105 
f 99/111/99 96/107/96 105/117/105 106/118/106 
f 107/119/107 85/93/85 93/101/93 
f 107/119/107 86/94/86 85/93/85 
f 103/115/103 86/94/86 107/119/107 104/116/104 
f 105/117/105 104/116/104 107/119/107 
f 108/120/108 99/111/99 106/118/106 
f 108/120/108 106/118/106 109/121/109 
f 109/121/109 106/118/106 105/117/105 107/119/107 
f 100/112/100 99/111/99 108/120/108 110/122/110 
f 111/123/111 102/114/102 110/122/110 
f 101/113/101 102/114/102 111/123/111 
f 112/124/112 92/110/92 101/113/101 
f 102/114/102 100/112/100 110/122/110 
f 109/121/109 107/119/107 93/101/93 113/125/113 
f 113/125/113 93/101/93 92/100/92 112/126/112 
f 108/120/108 109/121/109 113/125/113 110/122/110 
f 113/125/113 112/126/112 114/127/114 
f 114/127/114 110/122/110 113/125/113 
f 101/113/101 111/123/111 114/127/114 
f 114/127/114 111/123/111 110/122/110 
f 112/126/112 101/128/101 114/127/114 
f 115/129/115 116/130/116 117/131/117 
f 118/132/118 79/86/79 72/77/72 
f 72/77/72 119/133/119 118/132/118 
f 119/133/119 120/134/120 121/135/121 118/132/118 
f 116/130/116 122/136/122 123/137/123 117/131/117 
f 121/135/121 120/134/120 115/129/115 117/131/117 
f 122/136/122 124/138/124 125/139/125 123/137/123 
f 126/140/126 67/70/67 60/60/60 79/86/79 
f 126/140/126 79/86/79 118/132/118 127/141/127 
f 62/73/62 69/72/69 128/142/128 80/89/80 
f 129/143/129 83/91/83 84/92/84 130/144/130 
f 118/132/118 121/135/121 117/131/117 127/141/127 
f 123/137/123 125/139/125 127/141/127 
f 127/141/127 125/139/125 131/145/131 
f 117/131/117 123/137/123 127/141/127 
f 67/70/67 126/140/126 132/146/132 
f 81/88/81 80/89/80 128/142/128 84/92/84 
f 84/92/84 128/142/128 130/144/130 
f 130/144/130 133/147/133 129/143/129 
f 134/148/134 133/147/133 130/144/130 
f 135/149/135 134/148/134 130/144/130 
f 136/150/136 135/149/135 130/144/130 137/151/137 
f 137/151/137 138/152/138 139/153/139 
f 131/145/131 125/139/125 124/138/124 140/154/140 
f 127/141/127 131/145/131 140/154/140 141/155/141 
f 140/154/140 142/156/142 137/151/137 
f 137/151/137 130/144/130 128/142/128 
f 142/156/142 138/152/138 137/151/137 
f 126/140/126 127/141/127 141/155/141 132/146/132 
f 137/151/137 139/153/139 136/150/136 
f 60/60/60 59/59/59 58/58/58 61/61/61 
f 61/74/61 58/69/58 66/68/66 69/72/69 
f 69/72/69 66/68/66 65/67/65 68/71/68 
f 68/71/68 65/67/65 59/59/59 60/60/60 
f 137/151/137 128/142/128 143/157/143 
f 143/157/143 128/142/128 69/72/69 67/70/67 
f 140/154/140 137/151/137 141/155/141 
f 141/155/141 137/151/137 143/157/143 132/146/132 
f 132/146/132 143/157/143 67/70/67 
# 47 polygons - 47 triangles

#
# object SketchBook2_
#

v  595.5167 36.1965 -324.5333
v  593.8799 38.3186 -333.9436
v  571.7871 32.1906 -335.1708
v  619.6556 31.8435 -283.2108
v  618.0189 39.6824 -313.0776
v  542.3292 19.4669 -335.1708
v  351.4778 0.0414 -334.5203
v  345.9448 0.1314 -72.5068
v  361.9013 0.1314 -89.6907
v  376.9782 -0.2390 -334.1661
v  368.0381 0.1321 -89.2814
v  494.1306 4.2545 -334.5109
v  620.0646 16.8863 -256.6172
v  614.3367 -1.6672 -62.6878
v  620.4739 -0.7331 -72.9160
v  543.7309 -2.5263 -196.0411
v  522.8268 1.7863 -179.4521
v  326.0994 0.1217 -334.7133
v  324.2609 0.1314 -71.6885
v  243.2361 8.8368 -248.2864
v  238.8504 0.1333 -333.9054
v  232.9010 0.1320 -325.3116
v  233.1086 10.6766 -246.9718
v  233.2770 18.6357 -204.6099
v  233.1189 5.6032 -144.2462
v  244.0262 7.5203 -155.3147
v  235.0695 0.1327 -68.8246
v  244.8888 0.1324 -62.2785
v  301.8934 0.1314 -335.2284
v  307.6514 1.8336 -204.4797
v  318.5331 0.1314 -66.7789
v  306.9313 1.4551 -181.3150
v  309.9413 0.1314 -62.6878
v  378.2666 0.1314 -64.7335
# 34 vertices

vn -0.2720 0.9274 0.2566
vn -0.2715 0.9276 0.2564
vn -0.3407 0.8260 0.4490
vn -0.3901 0.8323 0.3938
vn -0.2749 0.9262 0.2582
vn -0.3083 0.9206 0.2395
vn 0.0071 1.0000 -0.0002
vn -0.0001 1.0000 -0.0003
vn -0.0011 1.0000 -0.0016
vn -0.0145 0.9999 -0.0024
vn -0.0102 0.9999 0.0116
vn -0.0932 0.9922 0.0833
vn -0.2429 0.9419 0.2320
vn -0.0223 0.9986 0.0470
vn -0.1054 0.9931 0.0512
vn 0.0071 0.9998 0.0191
vn 0.0700 0.9975 -0.0124
vn 0.0060 1.0000 -0.0059
vn -0.0000 1.0000 -0.0000
vn 0.1593 0.9858 -0.0541
vn -0.0422 0.9942 -0.0989
vn -0.1887 0.9733 -0.1305
vn 0.1563 0.9747 -0.1601
vn 0.9999 -0.0163 -0.0009
vn -0.0511 0.9965 0.0662
vn -0.0123 0.9990 0.0426
vn -0.0490 0.9961 0.0735
vn -0.0200 0.9966 0.0793
vn 0.0002 0.9999 -0.0130
vn 0.1750 0.9844 0.0150
vn 0.0075 0.9999 0.0074
vn 0.0349 0.9993 0.0153
vn 0.0023 0.9999 0.0111
vn -0.0031 0.9999 0.0105
# 34 vertex normals

vt 0.9390 0.4057 0.0000
vt 0.9367 0.4195 0.0000
vt 0.9040 0.4191 0.0000
vt 0.9744 0.3471 0.0000
vt 0.9723 0.3911 0.0000
vt 0.8586 0.4143 0.0000
vt 0.5842 0.4021 0.0000
vt 0.5862 0.0287 0.0000
vt 0.6090 0.0539 0.0000
vt 0.6203 0.4027 0.0000
vt 0.6185 0.0537 0.0000
vt 0.7871 0.4086 0.0000
vt 0.9709 0.3037 0.0000
vt 0.9710 0.0261 0.0000
vt 0.9793 0.0410 0.0000
vt 0.8647 0.2139 0.0000
vt 0.8356 0.1893 0.0000
vt 0.5483 0.4013 0.0000
vt 0.5545 0.0267 0.0000
vt 0.4321 0.2759 0.0000
vt 0.4247 0.3984 0.0000
vt 0.4165 0.3862 0.0000
vt 0.4192 0.2737 0.0000
vt 0.4094 0.2141 0.0000
vt 0.4207 0.1273 0.0000
vt 0.4360 0.1435 0.0000
vt 0.4263 0.0196 0.0000
vt 0.4406 0.0107 0.0000
vt 0.5141 0.4014 0.0000
vt 0.5256 0.2153 0.0000
vt 0.5457 0.0195 0.0000
vt 0.5253 0.1822 0.0000
vt 0.5333 0.0134 0.0000
vt 0.6345 0.0192 0.0000
# 34 texture coords

o SketchBook2_
g SketchBook2_
usemtl sketchbook_
s 1
f 144/158/144 145/159/145 146/160/146 
f 147/161/147 148/162/148 144/158/144 
f 144/158/144 146/160/146 149/163/149 147/161/147 
f 150/164/150 151/165/151 152/166/152 153/167/153 
f 153/167/153 152/166/152 154/168/154 155/169/155 
f 156/170/156 147/161/147 149/163/149 155/169/155 
f 157/171/157 158/172/158 159/173/159 160/174/160 
f 155/169/155 160/174/160 159/173/159 
f 151/165/151 150/164/150 161/175/161 162/176/162 
f 163/177/163 164/178/164 165/179/165 166/180/166 
f 163/177/163 166/180/166 167/181/167 168/182/168 
f 168/182/168 169/183/169 163/177/163 
f 168/182/168 170/184/170 171/185/171 169/183/169 
f 161/175/161 172/186/172 173/187/173 
f 172/186/172 164/178/164 163/177/163 173/187/173 
f 174/188/174 162/176/162 161/175/161 
f 175/189/175 176/190/176 174/188/174 
f 174/188/174 161/175/161 173/187/173 175/189/175 
f 169/183/169 171/185/171 176/190/176 175/189/175 
f 173/187/173 163/177/163 169/183/169 175/189/175 
f 155/169/155 154/168/154 177/191/177 160/174/160 
f 160/174/160 177/191/177 157/171/157 
f 158/172/158 156/170/156 159/173/159 
f 159/173/159 156/170/156 155/169/155 
# 14 polygons - 10 triangles

