# 3ds Max Wavefront OBJ Exporter v0.99 - (c)2007 guruware
# File Created: 04.07.2024 17:30:04

mtllib B_O_ACT_R_Memo.mtl

#
# object memo_
#

v  -1597.5773 4109.8506 7.0211
v  -1581.1453 4039.5833 -22.3904
v  -1329.0171 4421.2422 107.1806
v  -1545.4642 4706.5215 189.3696
v  -1302.3398 4647.1934 153.9712
v  -1108.6968 4651.8564 86.1508
v  1625.6368 4324.9473 28.2605
v  1644.7999 4387.1445 41.2985
v  1655.1896 4535.0098 69.4200
v  1170.7625 4536.4897 -27.0434
v  -1009.0800 4594.2793 35.2726
v  -1083.2153 4066.8730 -95.5624
v  -1616.4055 3955.0435 -53.1113
v  1645.5033 3920.4849 -61.0430
v  1647.8218 4262.5894 12.7660
v  1397.8252 3893.0686 -105.0261
v  1102.1719 4512.0889 -40.2341
v  1036.4750 4529.1201 -49.4818
v  300.5548 3977.1616 -184.3476
v  348.8206 4524.3174 -94.0482
v  -654.4559 4022.5322 -168.1951
v  -1045.6647 3694.8669 -164.7987
v  -672.8651 4603.6729 -66.3199
v  -349.7695 4523.6484 -95.9669
v  -453.8559 4572.3721 -83.9167
v  217.4218 4479.2344 -105.0408
v  -85.2499 3999.6731 -185.1518
v  82.0232 4525.7051 -98.6688
v  -209.6431 4551.6006 -93.2960
v  1524.1125 3785.4731 -101.8060
v  1613.4144 3797.3901 -82.3473
v  1616.0740 3836.1221 -75.4814
v  1633.8625 3105.3604 -145.6495
v  1635.2631 3741.2656 -88.9029
v  952.9923 3574.1360 -185.4593
v  -457.7226 3163.4619 -250.0331
v  -1592.0940 2960.9902 -141.6284
v  -1599.5056 2800.7195 -139.5521
v  -1638.6116 3198.2314 -131.4969
v  338.9409 3133.8782 -248.1257
v  -1567.8733 2752.8630 -144.4261
v  -1600.2791 2717.4663 -138.6244
v  -1597.6974 2678.7649 -138.5172
v  -1519.1688 2648.1870 -151.5893
v  -913.7655 2645.1162 -248.2886
v  1597.6567 2209.4568 -150.6648
v  607.7159 2383.2207 -254.4498
v  1587.4050 2017.8104 -150.8890
v  1582.3848 2105.1089 -152.2180
v  1544.9116 2162.4048 -158.2147
v  1502.6864 1881.8805 -163.8832
v  -909.0814 2602.1006 -249.6499
v  -435.3979 2566.3181 -265.1231
v  -1589.9087 2571.4326 -138.6325
v  -914.1341 2414.0339 -246.4041
v  -1577.8975 2331.9604 -141.2612
v  -926.7141 2308.2981 -245.6397
v  625.4008 2222.6914 -260.3661
v  -1475.3221 1436.2017 -159.7289
v  -1664.3010 1397.5068 -126.8276
v  -1593.3514 1369.3691 -135.0891
v  1593.5918 1825.9624 -150.2700
v  1593.2766 1855.1887 -150.3610
v  1499.6110 1781.4415 -164.2877
v  -1664.0541 1475.7982 -131.0680
v  -1664.1287 1463.7156 -130.6537
v  -1463.3661 1499.2844 -165.1260
v  -1570.6321 2199.7366 -143.4821
v  -1631.0991 2070.8804 -136.6813
v  -1655.1670 1879.3948 -136.3320
v  -934.0864 1982.7162 -246.6550
v  -932.5109 2130.6179 -245.9686
v  636.4124 1968.6658 -277.7264
v  -1530.9218 1560.9750 -155.9077
v  -1654.9460 1520.9252 -134.1127
v  -1644.9347 1671.8655 -139.0078
v  -1657.3051 1605.5398 -136.0785
v  -900.4512 1785.2039 -254.4437
v  -913.6298 1894.2781 -249.5133
v  -1659.6316 1672.1287 -136.5074
v  -1598.1068 644.3538 -22.4992
v  -1631.0260 521.8776 35.0711
v  -1609.7151 441.8674 77.3808
v  -1631.9780 332.4246 141.3036
v  -1623.0033 76.5984 274.6763
v  -906.5419 16.8804 -45.5078
v  -859.1679 344.9846 -111.1690
v  -1628.9967 844.6873 -71.8503
v  -1631.1154 730.3932 -47.4542
v  -850.4058 599.0066 -176.0167
v  -1634.5402 1334.2388 -125.0389
v  -1547.6348 1287.1818 -132.8438
v  -816.7123 844.7069 -197.3984
v  -1575.4882 1211.6783 -120.0251
v  -1613.3917 1238.3328 -117.8968
v  667.7637 1589.9989 -274.7871
v  -834.0235 1395.9102 -250.5160
v  -824.7652 1331.9519 -243.1548
v  -825.6428 1179.2190 -232.8582
v  702.1968 145.9136 -103.9571
v  748.9305 31.9509 -82.8477
v  832.9797 -56.6978 -65.4361
v  1024.7740 -84.1353 -47.8912
v  1053.4836 -21.4211 -54.3639
v  251.2151 17.6555 -98.6996
v  272.4918 -23.1562 -91.6112
v  669.8658 -6.7246 -79.7413
v  -200.6781 393.9882 -160.1594
v  37.7281 -18.3782 -94.7598
v  -277.3513 583.8524 -189.0494
v  1579.8958 876.4399 -69.7268
v  782.8189 971.5549 -234.7986
v  1579.0234 1642.0543 -148.6210
v  793.4520 1078.3595 -240.0104
v  1202.6012 -18.3684 -28.6291
v  1205.3566 -77.0208 -18.1890
v  1664.3121 -73.9778 66.9261
v  1076.4127 -82.7593 -40.4925
v  1170.0459 -80.9167 -24.3400
v  -373.9268 2288.2112 -271.1084
v  -345.5697 2067.0430 -274.6761
v  -316.7854 1363.4131 -270.3756
v  -304.9756 1101.3613 -254.1419
# 123 vertices

vn 0.3162 -0.3024 0.8992
vn 0.0888 -0.3723 0.9239
vn 0.1663 -0.2953 0.9408
vn 0.0336 -0.2530 0.9669
vn 0.2069 -0.2218 0.9529
vn 0.3302 -0.2320 0.9149
vn -0.1681 -0.1884 0.9676
vn -0.0801 -0.1808 0.9803
vn -0.1929 -0.1702 0.9663
vn -0.1644 -0.0969 0.9816
vn 0.2988 -0.2691 0.9156
vn 0.1627 -0.2485 0.9549
vn 0.1219 -0.2131 0.9694
vn -0.1487 -0.2076 0.9668
vn 0.0879 -0.2107 0.9736
vn -0.1261 -0.1517 0.9803
vn -0.1629 -0.1793 0.9702
vn -0.1309 -0.0672 0.9891
vn -0.0356 -0.1197 0.9922
vn -0.0485 -0.1585 0.9862
vn 0.0793 -0.1337 0.9878
vn 0.1320 -0.1131 0.9848
vn 0.1828 -0.1641 0.9694
vn 0.0252 -0.1613 0.9866
vn 0.0643 -0.1081 0.9921
vn -0.0245 -0.1497 0.9884
vn 0.0330 0.4260 0.9041
vn -0.0027 -0.1614 0.9869
vn 0.0068 -0.1289 0.9916
vn -0.1398 -0.1242 0.9824
vn -0.1899 -0.1587 0.9689
vn -0.1734 -0.1603 0.9717
vn -0.0922 -0.0332 0.9952
vn -0.1492 -0.0876 0.9849
vn -0.0814 -0.0830 0.9932
vn 0.0390 -0.0572 0.9976
vn 0.0962 -0.0063 0.9953
vn 0.1000 -0.0118 0.9949
vn 0.1122 -0.0542 0.9922
vn -0.0349 -0.0458 0.9983
vn 0.1597 0.0056 0.9871
vn 0.1619 0.0135 0.9867
vn 0.1695 0.0140 0.9854
vn 0.1609 0.0127 0.9869
vn 0.1033 -0.0537 0.9932
vn -0.1068 -0.0145 0.9942
vn -0.0677 -0.0398 0.9969
vn -0.1607 0.0058 0.9870
vn -0.1483 0.0065 0.9889
vn -0.1185 -0.0177 0.9928
vn -0.1371 0.0003 0.9906
vn 0.0928 -0.0038 0.9957
vn 0.0117 -0.0202 0.9997
vn 0.1589 0.0063 0.9873
vn 0.1012 0.0047 0.9949
vn 0.1581 -0.0053 0.9874
vn 0.1037 -0.0052 0.9946
vn -0.0654 -0.0576 0.9962
vn 0.1494 0.0790 0.9856
vn 0.1520 0.0943 0.9839
vn 0.1485 0.1021 0.9836
vn -0.1482 0.0015 0.9890
vn -0.1472 0.0015 0.9891
vn -0.1382 0.0127 0.9903
vn 0.1635 0.0328 0.9860
vn 0.1568 0.0329 0.9871
vn 0.1446 0.0418 0.9886
vn 0.1570 -0.0149 0.9875
vn 0.1467 -0.0166 0.9890
vn 0.1526 -0.0099 0.9882
vn 0.1045 -0.0070 0.9945
vn 0.1037 -0.0054 0.9946
vn -0.0661 -0.0340 0.9972
vn 0.0495 -0.0954 0.9942
vn 0.1632 0.0313 0.9861
vn 0.1613 -0.0304 0.9864
vn 0.1597 0.0138 0.9871
vn 0.0993 -0.0035 0.9950
vn 0.1014 -0.0207 0.9946
vn 0.1676 -0.0044 0.9858
vn 0.2025 0.3266 0.9232
vn -0.0977 0.4448 0.8903
vn 0.3499 0.4039 0.8453
vn 0.2263 0.4565 0.8604
vn 0.3973 0.4352 0.8079
vn 0.1928 0.2162 0.9571
vn 0.1315 0.2091 0.9690
vn 0.1633 0.1726 0.9714
vn -0.1830 0.2085 0.9608
vn 0.1051 0.1586 0.9817
vn 0.1472 0.1087 0.9831
vn 0.1465 0.1077 0.9833
vn 0.0836 0.0907 0.9924
vn 0.1479 0.1111 0.9827
vn 0.1371 0.1164 0.9837
vn -0.0662 0.0262 0.9975
vn 0.0932 0.0763 0.9927
vn 0.0937 0.0968 0.9909
vn 0.1021 0.0870 0.9910
vn -0.0670 0.1415 0.9877
vn -0.0205 0.1740 0.9845
vn -0.0725 0.1256 0.9894
vn -0.0734 0.1378 0.9877
vn -0.1227 0.1194 0.9852
vn 0.0094 0.0078 0.9999
vn -0.0358 0.1529 0.9876
vn -0.0362 0.1641 0.9858
vn 0.0048 0.1570 0.9876
vn 0.0155 0.1652 0.9861
vn 0.0220 0.1472 0.9889
vn -0.1755 0.1190 0.9773
vn -0.0966 0.1114 0.9891
vn -0.0164 0.1025 0.9946
vn -0.1185 0.0454 0.9919
vn -0.2166 0.1431 0.9657
vn -0.1809 0.1641 0.9697
vn -0.1817 0.1241 0.9755
vn -0.1709 0.1561 0.9728
vn -0.1709 0.1557 0.9729
vn 0.0154 -0.0160 0.9998
vn 0.0221 -0.0057 0.9997
vn 0.0197 0.0388 0.9991
vn 0.0243 0.0948 0.9952
# 123 vertex normals

vt 0.1636 0.8545 0.0000
vt 0.1678 0.8402 0.0000
vt 0.2102 0.9204 0.0000
vt 0.1655 0.9744 0.0000
vt 0.2132 0.9646 0.0000
vt 0.2526 0.9641 0.0000
vt 0.7822 0.9199 0.0000
vt 0.7855 0.9321 0.0000
vt 0.7866 0.9609 0.0000
vt 0.6923 0.9552 0.0000
vt 0.2731 0.9517 0.0000
vt 0.2641 0.8469 0.0000
vt 0.1624 0.8222 0.0000
vt 0.7876 0.8408 0.0000
vt 0.7867 0.9077 0.0000
vt 0.7399 0.8331 0.0000
vt 0.6791 0.9496 0.0000
vt 0.6662 0.9520 0.0000
vt 0.5293 0.8384 0.0000
vt 0.5347 0.9446 0.0000
vt 0.3471 0.8397 0.0000
vt 0.2742 0.7746 0.0000
vt 0.3395 0.9523 0.0000
vt 0.4016 0.9388 0.0000
vt 0.3815 0.9475 0.0000
vt 0.5100 0.9347 0.0000
vt 0.4559 0.8394 0.0000
vt 0.4840 0.9425 0.0000
vt 0.4281 0.9453 0.0000
vt 0.7644 0.8139 0.0000
vt 0.7817 0.8159 0.0000
vt 0.7823 0.8234 0.0000
vt 0.7912 0.6857 0.0000
vt 0.7861 0.8071 0.0000
vt 0.6572 0.7678 0.0000
vt 0.3908 0.6759 0.0000
vt 0.1744 0.6293 0.0000
vt 0.1745 0.5970 0.0000
vt 0.1638 0.6758 0.0000
vt 0.5431 0.6776 0.0000
vt 0.1812 0.5863 0.0000
vt 0.1751 0.5790 0.0000
vt 0.1757 0.5716 0.0000
vt 0.1913 0.5656 0.0000
vt 0.3078 0.5718 0.0000
vt 0.7937 0.5175 0.0000
vt 0.6022 0.5388 0.0000
vt 0.7939 0.4855 0.0000
vt 0.7917 0.5021 0.0000
vt 0.7837 0.5116 0.0000
vt 0.7796 0.4593 0.0000
vt 0.3090 0.5631 0.0000
vt 0.4005 0.5612 0.0000
vt 0.1783 0.5480 0.0000
vt 0.3100 0.5258 0.0000
vt 0.1835 0.5004 0.0000
vt 0.3088 0.5045 0.0000
vt 0.6071 0.5099 0.0000
vt 0.2189 0.3227 0.0000
vt 0.1835 0.3096 0.0000
vt 0.1977 0.3061 0.0000
vt 0.7982 0.4520 0.0000
vt 0.7973 0.4576 0.0000
vt 0.7812 0.4418 0.0000
vt 0.1817 0.3268 0.0000
vt 0.1819 0.3245 0.0000
vt 0.2200 0.3361 0.0000
vt 0.1867 0.4732 0.0000
vt 0.1771 0.4467 0.0000
vt 0.1756 0.4087 0.0000
vt 0.3121 0.4400 0.0000
vt 0.3101 0.4692 0.0000
vt 0.6127 0.4622 0.0000
vt 0.2055 0.3470 0.0000
vt 0.1826 0.3358 0.0000
vt 0.1816 0.3671 0.0000
vt 0.1802 0.3540 0.0000
vt 0.3225 0.4012 0.0000
vt 0.3178 0.4225 0.0000
vt 0.1785 0.3680 0.0000
vt 0.2111 0.1615 0.0000
vt 0.2067 0.1356 0.0000
vt 0.2120 0.1191 0.0000
vt 0.2075 0.0949 0.0000
vt 0.2093 0.0397 0.0000
vt 0.3584 0.0586 0.0000
vt 0.3586 0.1223 0.0000
vt 0.2014 0.2009 0.0000
vt 0.2031 0.1782 0.0000
vt 0.3552 0.1727 0.0000
vt 0.1903 0.2984 0.0000
vt 0.2078 0.2905 0.0000
vt 0.3565 0.2214 0.0000
vt 0.2040 0.2743 0.0000
vt 0.1962 0.2789 0.0000
vt 0.6257 0.3913 0.0000
vt 0.3422 0.3276 0.0000
vt 0.3452 0.3147 0.0000
vt 0.3481 0.2857 0.0000
vt 0.6603 0.1185 0.0000
vt 0.6715 0.0975 0.0000
vt 0.6893 0.0820 0.0000
vt 0.7265 0.0802 0.0000
vt 0.7306 0.0926 0.0000
vt 0.5771 0.0855 0.0000
vt 0.5819 0.0781 0.0000
vt 0.6573 0.0886 0.0000
vt 0.4836 0.1491 0.0000
vt 0.5376 0.0747 0.0000
vt 0.4650 0.1838 0.0000
vt 0.8140 0.2729 0.0000
vt 0.6597 0.2768 0.0000
vt 0.7989 0.4180 0.0000
vt 0.6596 0.2973 0.0000
vt 0.7593 0.0955 0.0000
vt 0.7611 0.0842 0.0000
vt 0.8500 0.0923 0.0000
vt 0.7363 0.0812 0.0000
vt 0.7544 0.0831 0.0000
vt 0.4152 0.5081 0.0000
vt 0.4236 0.4655 0.0000
vt 0.4417 0.3317 0.0000
vt 0.4492 0.2822 0.0000
# 123 texture coords

o memo_
g memo_
usemtl default
s 1
f 1/1/1 2/2/2 3/3/3 4/4/4 
f 3/3/3 5/5/5 4/4/4 
f 5/5/5 3/3/3 6/6/6 
f 7/7/7 8/8/8 9/9/9 10/10/10 
f 11/11/11 6/6/6 3/3/3 12/12/12 
f 12/12/12 3/3/3 2/2/2 13/13/13 
f 14/14/14 15/15/15 7/7/7 16/16/16 
f 7/7/7 10/10/10 17/17/17 16/16/16 
f 16/16/16 17/17/17 18/18/18 19/19/19 
f 19/19/19 18/18/18 20/20/20 
f 21/21/21 12/12/12 22/22/22 
f 23/23/23 11/11/11 12/12/12 21/21/21 
f 24/24/24 25/25/25 23/23/23 21/21/21 
f 19/19/19 20/20/20 26/26/26 27/27/27 
f 27/27/27 26/26/26 28/28/28 
f 28/28/28 29/29/29 24/24/24 27/27/27 
f 27/27/27 24/24/24 21/21/21 
f 30/30/30 31/31/31 32/32/32 16/16/16 
f 33/33/33 34/34/34 30/30/30 
f 35/35/35 16/16/16 19/19/19 
f 33/33/33 30/30/30 16/16/16 35/35/35 
f 21/21/21 22/22/22 36/36/36 
f 37/37/37 38/38/38 36/36/36 
f 36/36/36 39/39/39 37/37/37 
f 36/36/36 19/19/19 27/27/27 21/21/21 
f 40/40/40 19/19/19 36/36/36 
f 41/41/41 42/42/42 43/43/43 44/44/44 
f 38/38/38 41/41/41 45/45/45 36/36/36 
f 46/46/46 33/33/33 40/40/40 47/47/47 
f 48/48/48 49/49/49 50/50/50 51/51/51 
f 45/45/45 41/41/41 44/44/44 52/52/52 
f 40/40/40 36/36/36 53/53/53 
f 52/52/52 44/44/44 54/54/54 55/55/55 
f 55/55/55 54/54/54 56/56/56 57/57/57 
f 46/46/46 47/47/47 58/58/58 50/50/50 
f 59/59/59 60/60/60 61/61/61 
f 62/62/62 63/63/63 51/51/51 64/64/64 
f 65/65/65 66/66/66 59/59/59 67/67/67 
f 68/68/68 69/69/69 70/70/70 71/71/71 72/72/72 
f 73/73/73 51/51/51 50/50/50 58/58/58 
f 57/57/57 56/56/56 68/68/68 72/72/72 
f 74/74/74 75/75/75 67/67/67 
f 76/76/76 77/77/77 74/74/74 
f 67/67/67 78/78/78 79/79/79 76/76/76 74/74/74 
f 70/70/70 80/80/80 76/76/76 79/79/79 71/71/71 
f 81/81/81 82/82/82 83/83/83 
f 83/83/83 84/84/84 85/85/85 86/86/86 
f 81/81/81 83/83/83 86/86/86 87/87/87 
f 88/88/88 89/89/89 81/81/81 
f 81/81/81 87/87/87 90/90/90 88/88/88 
f 61/61/61 91/91/91 92/92/92 
f 93/93/93 94/94/94 88/88/88 90/90/90 
f 92/92/92 95/95/95 94/94/94 
f 64/64/64 51/51/51 73/73/73 96/96/96 
f 78/78/78 67/67/67 59/59/59 97/97/97 
f 59/59/59 61/61/61 92/92/92 98/98/98 97/97/97 
f 98/98/98 92/92/92 99/99/99 
f 99/99/99 92/92/92 94/94/94 93/93/93 
f 100/100/100 101/101/101 102/102/102 103/103/103 
f 100/100/100 103/103/103 104/104/104 
f 105/105/105 106/106/106 107/107/107 100/100/100 
f 108/108/108 109/109/109 105/105/105 100/100/100 
f 110/110/110 108/108/108 100/100/100 
f 100/100/100 111/111/111 112/112/112 
f 111/111/111 113/113/113 64/64/64 96/96/96 114/114/114 
f 115/115/115 116/116/116 117/117/117 111/111/111 
f 111/111/111 114/114/114 112/112/112 
f 111/111/111 100/100/100 104/104/104 
f 111/111/111 104/104/104 115/115/115 
f 104/104/104 118/118/118 119/119/119 115/115/115 
f 40/40/40 53/53/53 47/47/47 
f 47/47/47 53/53/53 120/120/120 58/58/58 
f 58/58/58 120/120/120 121/121/121 73/73/73 
f 73/73/73 121/121/121 122/122/122 96/96/96 
f 96/96/96 122/122/122 114/114/114 
f 114/114/114 122/122/122 123/123/123 112/112/112 
f 112/112/112 123/123/123 110/110/110 100/100/100 
f 86/86/86 109/109/109 87/87/87 
f 87/87/87 109/109/109 108/108/108 90/90/90 
f 90/90/90 108/108/108 110/110/110 93/93/93 
f 93/93/93 110/110/110 123/123/123 99/99/99 
f 99/99/99 123/123/123 122/122/122 98/98/98 
f 98/98/98 122/122/122 97/97/97 
f 97/97/97 122/122/122 121/121/121 78/78/78 
f 78/78/78 121/121/121 79/79/79 
f 79/79/79 121/121/121 71/71/71 
f 71/71/71 121/121/121 72/72/72 
f 72/72/72 121/121/121 120/120/120 57/57/57 
f 57/57/57 120/120/120 55/55/55 
f 55/55/55 120/120/120 53/53/53 52/52/52 
f 52/52/52 53/53/53 45/45/45 
f 45/45/45 53/53/53 36/36/36 
f 12/12/12 13/13/13 39/39/39 22/22/22 
f 22/22/22 39/39/39 36/36/36 
f 19/19/19 40/40/40 35/35/35 
f 35/35/35 40/40/40 33/33/33 
# 56 polygons - 40 triangles

