# 3ds Max Wavefront OBJ Exporter v0.99 - (c)2007 guruware
# File Created: 01.07.2024 20:14:57

mtllib B_O_Woodbox.mtl

#
# object default
#

v  -7.7184 19.0817 11.1966
v  -7.7420 3.9153 11.6682
v  7.9061 3.8965 11.1169
v  7.8697 19.0381 11.5041
v  7.9313 19.1710 11.8936
v  -7.7597 19.1286 11.8684
v  7.9948 3.8736 11.8609
v  -7.8554 3.7580 11.9168
v  11.6769 22.6624 11.8305
v  -11.4688 22.7198 11.7794
v  11.7118 0.0556 11.7287
v  11.6055 0.0777 10.2656
v  11.7831 22.8306 10.0756
v  -11.4519 0.1427 11.8237
v  -11.5139 22.9072 10.4113
v  -11.4519 0.0240 10.1086
v  11.1864 19.0817 7.8254
v  11.6581 3.9153 7.8490
v  11.1068 3.8965 -7.7991
v  11.4940 19.0381 -7.7627
v  11.8834 19.1710 -7.8243
v  11.8583 19.1286 7.8667
v  11.8507 3.8736 -7.8877
v  11.9067 3.7580 7.9625
v  11.8203 22.6624 -11.5698
v  11.7693 22.7198 11.5759
v  11.7186 0.0556 -11.6048
v  10.2555 0.0777 -11.4985
v  10.0655 22.8306 -11.6761
v  11.8136 0.1427 11.5590
v  10.4012 22.9072 11.6209
v  10.0985 0.0240 11.5590
v  7.8828 19.0817 -11.1966
v  7.9065 3.9153 -11.6682
v  -7.7416 3.8965 -11.1169
v  -7.7052 19.0381 -11.5041
v  -7.7668 19.1710 -11.8936
v  7.9242 19.1286 -11.8684
v  -7.8303 3.8736 -11.8609
v  8.0199 3.7580 -11.9168
v  -11.5124 22.6624 -11.8305
v  11.6333 22.7198 -11.7794
v  -11.5473 0.0556 -11.7287
v  -11.4410 0.0777 -10.2656
v  -11.6187 22.8306 -10.0756
v  11.6164 0.1427 -11.8237
v  11.6784 22.9072 -10.4113
v  11.6164 0.0240 -10.1086
v  -11.1864 19.0817 -7.8652
v  -11.6581 3.9153 -7.8889
v  -11.1068 3.8965 7.7593
v  -11.4940 19.0381 7.7229
v  -11.8834 19.1710 7.7845
v  -11.8583 19.1286 -7.9065
v  -11.8507 3.8736 7.8475
v  -11.9067 3.7580 -8.0023
v  -11.8203 22.6624 11.5297
v  -11.7693 22.7198 -11.6157
v  -11.7186 0.0556 11.5650
v  -10.2555 0.0777 11.4583
v  -10.0655 22.8306 11.6359
v  -11.8136 0.1427 -11.5988
v  -10.4012 22.9072 -11.6611
v  -10.0985 0.0240 -11.5988
v  7.5659 22.3766 -7.8652
v  -7.6004 22.8483 -7.8889
v  -7.6192 22.2970 7.7593
v  7.5223 22.6842 7.7229
v  7.6553 23.0736 7.7845
v  7.6128 23.0484 -7.9065
v  -7.6421 23.0409 7.8475
v  -7.7578 23.0969 -8.0023
v  11.1466 23.0105 11.5297
v  11.2041 22.9594 -11.6157
v  -11.4602 22.9087 11.5650
v  -11.4380 21.4457 11.4583
v  11.3149 21.2556 11.6359
v  -11.3731 23.0037 -11.5988
v  11.3915 21.5914 -11.6611
v  -11.4917 21.2887 -11.5988
v  -7.6662 0.3992 -7.8652
v  7.5002 -0.0725 -7.8889
v  7.5190 0.4788 7.7593
v  -7.6226 0.0916 7.7229
v  -7.7555 -0.2978 7.7845
v  -7.7131 -0.2726 -7.9065
v  7.5419 -0.2651 7.8475
v  7.6575 -0.3211 -8.0023
v  -11.2469 -0.2347 11.5297
v  -11.3043 -0.1836 -11.6157
v  11.3599 -0.1329 11.5650
v  11.3378 1.3301 11.4583
v  -11.4151 1.5202 11.6359
v  11.2728 -0.2279 -11.5988
v  -11.4917 1.1844 -11.6611
v  11.3915 1.4871 -11.5988
# 96 vertices

vn 0.5528 -0.5495 0.6265
vn 0.4573 0.3914 0.7985
vn -0.5297 0.5643 0.6332
vn -0.5473 -0.4776 0.6873
vn -0.2101 -0.2315 0.9499
vn 0.2735 -0.2738 0.9221
vn -0.2731 0.2577 0.9268
vn 0.1491 0.1593 0.9759
vn 0.5643 0.5499 0.6158
vn -0.5761 0.5378 0.6155
vn 0.6020 -0.5829 0.5457
vn 0.6905 -0.7207 -0.0611
vn 0.7009 0.7047 0.1100
vn -0.5836 -0.5569 0.5910
vn -0.6794 0.7237 0.1217
vn -0.6878 -0.7242 0.0500
vn 0.6265 -0.5495 -0.5528
vn 0.7985 0.3914 -0.4573
vn 0.6332 0.5643 0.5297
vn 0.6873 -0.4776 0.5473
vn 0.9499 -0.2315 0.2101
vn 0.9221 -0.2738 -0.2735
vn 0.9268 0.2577 0.2731
vn 0.9759 0.1593 -0.1491
vn 0.6158 0.5499 -0.5643
vn 0.6155 0.5378 0.5761
vn 0.5457 -0.5829 -0.6020
vn -0.0611 -0.7207 -0.6905
vn 0.1100 0.7047 -0.7009
vn 0.5910 -0.5569 0.5836
vn 0.1217 0.7237 0.6794
vn 0.0500 -0.7242 0.6878
vn -0.5528 -0.5495 -0.6265
vn -0.4573 0.3914 -0.7985
vn 0.5297 0.5643 -0.6332
vn 0.5473 -0.4776 -0.6873
vn 0.2101 -0.2315 -0.9499
vn -0.2735 -0.2738 -0.9221
vn 0.2731 0.2577 -0.9268
vn -0.1491 0.1593 -0.9759
vn -0.5643 0.5499 -0.6158
vn 0.5761 0.5378 -0.6155
vn -0.6020 -0.5829 -0.5457
vn -0.6905 -0.7207 0.0611
vn -0.7009 0.7047 -0.1100
vn 0.5836 -0.5569 -0.5910
vn 0.6794 0.7237 -0.1217
vn 0.6878 -0.7242 -0.0500
vn -0.6265 -0.5495 0.5528
vn -0.7985 0.3914 0.4573
vn -0.6332 0.5643 -0.5297
vn -0.6873 -0.4776 -0.5473
vn -0.9499 -0.2315 -0.2101
vn -0.9221 -0.2738 0.2735
vn -0.9268 0.2577 -0.2731
vn -0.9759 0.1593 0.1491
vn -0.6158 0.5499 0.5643
vn -0.6155 0.5378 -0.5761
vn -0.5457 -0.5829 0.6020
vn 0.0611 -0.7207 0.6905
vn -0.1100 0.7047 0.7009
vn -0.5910 -0.5569 -0.5836
vn -0.1217 0.7237 -0.6794
vn -0.0500 -0.7242 -0.6878
vn -0.5495 0.6265 0.5528
vn 0.3914 0.7985 0.4573
vn 0.5643 0.6332 -0.5297
vn -0.4776 0.6873 -0.5473
vn -0.2315 0.9499 -0.2101
vn -0.2738 0.9221 0.2735
vn 0.2577 0.9268 -0.2731
vn 0.1593 0.9759 0.1491
vn 0.5499 0.6158 0.5643
vn 0.5378 0.6155 -0.5761
vn -0.5829 0.5457 0.6020
vn -0.7207 -0.0611 0.6905
vn 0.7047 0.1100 0.7009
vn -0.5569 0.5910 -0.5836
vn 0.7237 0.1217 -0.6794
vn -0.7242 0.0500 -0.6878
vn 0.5495 -0.6265 0.5528
vn -0.3914 -0.7985 0.4573
vn -0.5643 -0.6332 -0.5297
vn 0.4776 -0.6873 -0.5473
vn 0.2315 -0.9499 -0.2101
vn 0.2738 -0.9221 0.2735
vn -0.2577 -0.9268 -0.2731
vn -0.1593 -0.9759 0.1491
vn -0.5499 -0.6158 0.5643
vn -0.5378 -0.6155 -0.5761
vn 0.5829 -0.5457 0.6020
vn 0.7207 0.0611 0.6905
vn -0.7047 -0.1100 0.7009
vn 0.5569 -0.5910 -0.5836
vn -0.7237 -0.1217 -0.6794
vn 0.7242 -0.0500 -0.6878
# 96 vertex normals

vt 0.2040 0.7866 0.0000
vt 0.1982 0.2109 0.0000
vt 0.7850 0.2196 0.0000
vt 0.7912 0.7861 0.0000
vt 0.8019 0.7978 0.0000
vt 0.1873 0.8041 0.0000
vt 0.8042 0.2008 0.0000
vt 0.1899 0.2014 0.0000
vt 0.9460 0.9298 0.0000
vt 0.0445 0.9432 0.0000
vt 0.9458 0.0538 0.0000
vt 0.9811 0.0164 0.0000
vt 0.9905 0.9767 0.0000
vt 0.0534 0.0628 0.0000
vt 0.0095 0.9795 0.0000
vt 0.0119 0.0191 0.0000
# 16 texture coords

o default
g default
usemtl wood_box
s 1
f 1/1/1 2/2/2 3/3/3 4/4/4 
f 4/4/4 5/5/5 6/6/6 1/1/1 
f 7/7/7 5/5/5 4/4/4 3/3/3 
f 2/2/2 8/8/8 7/7/7 3/3/3 
f 2/2/2 1/1/1 6/6/6 8/8/8 
f 5/5/5 9/9/9 10/10/10 6/6/6 
f 9/9/9 5/5/5 7/7/7 11/11/11 
f 12/12/12 13/13/13 9/9/9 11/11/11 
f 14/14/14 11/11/11 7/7/7 8/8/8 
f 10/10/10 14/14/14 8/8/8 6/6/6 
f 13/13/13 15/15/15 10/10/10 9/9/9 
f 15/15/15 16/16/16 14/14/14 10/10/10 
f 14/14/14 16/16/16 12/12/12 11/11/11 
f 17/1/17 18/2/18 19/3/19 20/4/20 
f 20/4/20 21/5/21 22/6/22 17/1/17 
f 23/7/23 21/5/21 20/4/20 19/3/19 
f 18/2/18 24/8/24 23/7/23 19/3/19 
f 18/2/18 17/1/17 22/6/22 24/8/24 
f 21/5/21 25/9/25 26/10/26 22/6/22 
f 25/9/25 21/5/21 23/7/23 27/11/27 
f 28/12/28 29/13/29 25/9/25 27/11/27 
f 30/14/30 27/11/27 23/7/23 24/8/24 
f 26/10/26 30/14/30 24/8/24 22/6/22 
f 29/13/29 31/15/31 26/10/26 25/9/25 
f 31/15/31 32/16/32 30/14/30 26/10/26 
f 30/14/30 32/16/32 28/12/28 27/11/27 
f 33/1/33 34/2/34 35/3/35 36/4/36 
f 36/4/36 37/5/37 38/6/38 33/1/33 
f 39/7/39 37/5/37 36/4/36 35/3/35 
f 34/2/34 40/8/40 39/7/39 35/3/35 
f 34/2/34 33/1/33 38/6/38 40/8/40 
f 37/5/37 41/9/41 42/10/42 38/6/38 
f 41/9/41 37/5/37 39/7/39 43/11/43 
f 44/12/44 45/13/45 41/9/41 43/11/43 
f 46/14/46 43/11/43 39/7/39 40/8/40 
f 42/10/42 46/14/46 40/8/40 38/6/38 
f 45/13/45 47/15/47 42/10/42 41/9/41 
f 47/15/47 48/16/48 46/14/46 42/10/42 
f 46/14/46 48/16/48 44/12/44 43/11/43 
f 49/1/49 50/2/50 51/3/51 52/4/52 
f 52/4/52 53/5/53 54/6/54 49/1/49 
f 55/7/55 53/5/53 52/4/52 51/3/51 
f 50/2/50 56/8/56 55/7/55 51/3/51 
f 50/2/50 49/1/49 54/6/54 56/8/56 
f 53/5/53 57/9/57 58/10/58 54/6/54 
f 57/9/57 53/5/53 55/7/55 59/11/59 
f 60/12/60 61/13/61 57/9/57 59/11/59 
f 62/14/62 59/11/59 55/7/55 56/8/56 
f 58/10/58 62/14/62 56/8/56 54/6/54 
f 61/13/61 63/15/63 58/10/58 57/9/57 
f 63/15/63 64/16/64 62/14/62 58/10/58 
f 62/14/62 64/16/64 60/12/60 59/11/59 
f 65/1/65 66/2/66 67/3/67 68/4/68 
f 68/4/68 69/5/69 70/6/70 65/1/65 
f 71/7/71 69/5/69 68/4/68 67/3/67 
f 66/2/66 72/8/72 71/7/71 67/3/67 
f 66/2/66 65/1/65 70/6/70 72/8/72 
f 69/5/69 73/9/73 74/10/74 70/6/70 
f 73/9/73 69/5/69 71/7/71 75/11/75 
f 76/12/76 77/13/77 73/9/73 75/11/75 
f 78/14/78 75/11/75 71/7/71 72/8/72 
f 74/10/74 78/14/78 72/8/72 70/6/70 
f 77/13/77 79/15/79 74/10/74 73/9/73 
f 79/15/79 80/16/80 78/14/78 74/10/74 
f 78/14/78 80/16/80 76/12/76 75/11/75 
f 81/1/81 82/2/82 83/3/83 84/4/84 
f 84/4/84 85/5/85 86/6/86 81/1/81 
f 87/7/87 85/5/85 84/4/84 83/3/83 
f 82/2/82 88/8/88 87/7/87 83/3/83 
f 82/2/82 81/1/81 86/6/86 88/8/88 
f 85/5/85 89/9/89 90/10/90 86/6/86 
f 89/9/89 85/5/85 87/7/87 91/11/91 
f 92/12/92 93/13/93 89/9/89 91/11/91 
f 94/14/94 91/11/91 87/7/87 88/8/88 
f 90/10/90 94/14/94 88/8/88 86/6/86 
f 93/13/93 95/15/95 90/10/90 89/9/89 
f 95/15/95 96/16/96 94/14/94 90/10/90 
f 94/14/94 96/16/96 92/12/92 91/11/91 
# 78 polygons

