# 3ds Max Wavefront OBJ Exporter v0.99 - (c)2007 guruware
# File Created: 11.09.2024 17:19:05

mtllib A_ClockFace.mtl

#
# object _clock
#

v  -10036.0791 1231.8239 -2912.2214
v  -10042.7441 1286.2318 -2912.2214
v  -10042.7441 1286.2318 -2875.1538
v  -10036.0791 1231.8239 -2875.1538
v  -10070.9893 1333.2109 -2912.2214
v  -10070.9893 1333.2109 -2875.1538
v  -10115.8867 1364.6450 -2912.2214
v  -10115.8867 1364.6450 -2875.1538
v  -10169.6836 1375.1102 -2875.1538
v  -10169.6836 1375.1102 -2912.2214
v  -10223.0977 1362.7734 -2912.2214
v  -10223.0977 1362.7734 -2875.1538
v  -10266.8691 1329.7926 -2912.2214
v  -10266.8691 1329.7926 -2875.1538
v  -10293.4521 1281.8586 -2912.2214
v  -10293.4521 1281.8586 -2875.1538
v  -10298.2266 1227.2406 -2912.2214
v  -10298.2266 1227.2406 -2875.1538
v  -10280.3896 1175.4108 -2912.2214
v  -10280.3896 1175.4108 -2875.1538
v  -10242.9971 1135.3257 -2912.2214
v  -10242.9971 1135.3257 -2875.1538
v  -10192.5430 1113.9177 -2875.1538
v  -10192.5430 1113.9177 -2912.2214
v  -10137.7334 1114.8726 -2875.1538
v  -10137.7334 1114.8726 -2912.2214
v  -10088.0615 1138.0375 -2912.2214
v  -10088.0615 1138.0375 -2875.1538
v  -10052.1016 1179.4021 -2912.2214
v  -10052.1016 1179.4021 -2875.1538
v  -10052.6934 1282.7943 -2882.1816
v  -10078.6660 1326.0304 -2882.1816
v  -10061.2871 1184.5010 -2882.1816
v  -10046.5449 1232.7406 -2882.1816
v  -10052.6934 1282.7943 -2875.1538
v  -10046.5449 1232.7406 -2875.1538
v  -10078.6660 1326.0304 -2875.1538
v  -10119.9922 1354.9626 -2875.1538
v  -10169.5117 1364.5876 -2875.1538
v  -10218.7246 1352.5565 -2875.1538
v  -10258.9434 1322.8984 -2875.1538
v  -10283.3877 1278.7839 -2875.1538
v  -10287.7803 1228.5200 -2875.1538
v  -10271.3760 1180.8344 -2875.1538
v  -10236.9629 1143.9385 -2875.1538
v  -10190.5371 1124.2302 -2875.1538
v  -10140.1016 1125.1086 -2875.1538
v  -10094.3828 1146.4403 -2875.1538
v  -10061.2871 1184.5010 -2875.1538
v  -10119.9922 1354.9626 -2882.1816
v  -10169.5117 1364.5876 -2882.1816
v  -10218.6484 1353.2439 -2882.1816
v  -10258.9434 1322.8984 -2882.1816
v  -10283.3877 1278.7839 -2882.1816
v  -10287.7803 1228.5200 -2882.1816
v  -10271.3760 1180.8344 -2882.1816
v  -10236.9629 1143.9385 -2882.1816
v  -10190.9961 1124.7076 -2882.1816
v  -10140.5605 1125.5861 -2882.1816
v  -10094.3828 1146.4403 -2882.1816
# 60 vertices

vn 0.9962 -0.0872 0.0000
vn 0.9455 0.3256 0.0000
vn 0.7077 0.2437 0.6632
vn 0.7456 -0.0652 0.6632
vn 0.7314 0.6820 0.0000
vn 0.5474 0.5105 0.6632
vn 0.3907 0.9205 0.0000
vn 0.2925 0.6890 0.6632
vn -0.0131 0.7484 0.6632
vn -0.0175 0.9998 0.0000
vn -0.4226 0.9063 0.0000
vn -0.3163 0.6783 0.6632
vn -0.7547 0.6561 0.0000
vn -0.5649 0.4910 0.6632
vn -0.9563 0.2924 0.0000
vn -0.7158 0.2188 0.6632
vn -0.9925 -0.1219 0.0000
vn -0.7429 -0.0912 0.6632
vn -0.8572 -0.5150 -0.0000
vn -0.6416 -0.3855 0.6632
vn -0.5736 -0.8192 -0.0000
vn -0.4293 -0.6131 0.6632
vn -0.1428 -0.7347 0.6632
vn -0.1908 -0.9816 -0.0000
vn 0.1684 -0.7293 0.6632
vn 0.2250 -0.9744 0.0000
vn 0.6018 -0.7986 0.0000
vn 0.4504 -0.5978 0.6632
vn 0.8746 -0.4848 0.0000
vn 0.6546 -0.3629 0.6632
vn 0.9563 -0.2924 -0.0000
vn -0.7077 -0.2437 0.6632
vn -0.5474 -0.5105 0.6632
vn -0.6546 0.3629 0.6632
vn -0.7456 0.0652 0.6632
vn -0.6178 -0.2127 0.7570
vn -0.6509 0.0569 0.7570
vn -0.4778 -0.4456 0.7570
vn -0.2553 -0.6014 0.7570
vn 0.0135 -0.6591 0.7520
vn 0.2890 -0.6085 0.7390
vn 0.4955 -0.4329 0.7530
vn 0.6248 -0.1910 0.7570
vn 0.6485 0.0796 0.7570
vn 0.5601 0.3365 0.7570
vn 0.3722 0.5331 0.7598
vn 0.1143 0.6254 0.7719
vn -0.1440 0.6143 0.7759
vn -0.3870 0.5168 0.7636
vn -0.5715 0.3168 0.7570
vn -0.2925 -0.6890 0.6632
vn 0.0156 -0.7567 0.6536
vn 0.3175 -0.6912 0.6492
vn 0.5686 -0.4968 0.6557
vn 0.7158 -0.2188 0.6632
vn 0.7429 0.0912 0.6632
vn 0.6416 0.3855 0.6632
vn 0.4268 0.6112 0.6666
vn 0.1464 0.7190 0.6794
vn -0.1574 0.7114 0.6850
vn -0.4443 0.5933 0.6713
# 61 vertex normals

vt 0.9959 0.1270 0.0000
vt 0.9900 0.1843 0.0000
vt 0.9586 0.1737 0.0000
vt 0.9629 0.1300 0.0000
vt 0.9612 0.2343 0.0000
vt 0.9369 0.2117 0.0000
vt 0.9146 0.2682 0.0000
vt 0.9015 0.2377 0.0000
vt 0.8587 0.2470 0.0000
vt 0.8583 0.2802 0.0000
vt 0.8019 0.2683 0.0000
vt 0.8158 0.2382 0.0000
vt 0.7553 0.2345 0.0000
vt 0.7802 0.2126 0.0000
vt 0.7264 0.1846 0.0000
vt 0.7581 0.1748 0.0000
vt 0.7203 0.1273 0.0000
vt 0.7533 0.1312 0.0000
vt 0.7381 0.0725 0.0000
vt 0.7666 0.0895 0.0000
vt 0.7766 0.0296 0.0000
vt 0.7957 0.0568 0.0000
vt 0.8357 0.0389 0.0000
vt 0.8292 0.0063 0.0000
vt 0.8794 0.0387 0.0000
vt 0.8867 0.0063 0.0000
vt 0.9394 0.0295 0.0000
vt 0.9196 0.0561 0.0000
vt 0.9781 0.0722 0.0000
vt 0.9491 0.0884 0.0000
vt 0.9472 0.1700 0.0000
vt 0.9279 0.2038 0.0000
vt 0.9388 0.0945 0.0000
vt 0.9510 0.1314 0.0000
vt 0.9508 0.1712 0.0000
vt 0.9548 0.1309 0.0000
vt 0.9308 0.2063 0.0000
vt 0.8982 0.2303 0.0000
vt 0.8587 0.2389 0.0000
vt 0.8194 0.2308 0.0000
vt 0.7862 0.2071 0.0000
vt 0.7658 0.1722 0.0000
vt 0.7613 0.1320 0.0000
vt 0.7736 0.0935 0.0000
vt 0.8005 0.0633 0.0000
vt 0.8374 0.0468 0.0000
vt 0.8778 0.0466 0.0000
vt 0.9149 0.0626 0.0000
vt 0.9421 0.0925 0.0000
vt 0.8966 0.2268 0.0000
vt 0.8587 0.2351 0.0000
vt 0.8206 0.2272 0.0000
vt 0.7891 0.2046 0.0000
vt 0.7695 0.1710 0.0000
vt 0.7652 0.1324 0.0000
vt 0.7770 0.0954 0.0000
vt 0.8028 0.0664 0.0000
vt 0.8378 0.0507 0.0000
vt 0.8767 0.0504 0.0000
vt 0.9126 0.0658 0.0000
# 60 texture coords

o _clock
g _clock
usemtl grandfather_clock
s 1
f 1/1/1 2/2/2 3/3/3 4/4/4 
f 5/5/5 6/6/6 3/3/3 2/2/2 
f 6/6/6 5/5/5 7/7/7 8/8/8 
f 9/9/9 8/8/8 7/7/7 10/10/10 
f 9/9/9 10/10/10 11/11/11 12/12/12 
f 13/13/13 14/14/14 12/12/12 11/11/11 
f 13/13/13 15/15/15 16/16/16 14/14/14 
f 15/15/15 17/17/17 18/18/18 16/16/16 
f 17/17/17 19/19/19 20/20/20 18/18/18 
f 19/19/19 21/21/21 22/22/22 20/20/20 
f 23/23/23 22/22/22 21/21/21 24/24/24 
f 25/25/25 23/23/23 24/24/24 26/26/26 
f 27/27/27 28/28/28 25/25/25 26/26/26 
f 27/27/27 29/29/29 30/30/30 28/28/28 
f 1/1/1 4/4/4 30/30/30 29/29/31 
f 31/31/32 32/32/33 33/33/34 34/34/35 
f 4/4/4 3/3/3 35/35/36 36/36/37 
f 37/37/38 35/35/36 3/3/3 6/6/6 
f 6/6/6 8/8/8 38/38/39 37/37/38 
f 38/38/39 8/8/8 9/9/9 39/39/40 
f 40/40/41 39/39/40 9/9/9 12/12/12 
f 40/40/41 12/12/12 14/14/14 41/41/42 
f 42/42/43 41/41/42 14/14/14 16/16/16 
f 18/18/18 43/43/44 42/42/43 16/16/16 
f 44/44/45 43/43/44 18/18/18 20/20/20 
f 45/45/46 44/44/45 20/20/20 22/22/22 
f 23/23/23 46/46/47 45/45/46 22/22/22 
f 25/25/25 47/47/48 46/46/47 23/23/23 
f 47/47/48 25/25/25 28/28/28 48/48/49 
f 30/30/30 49/49/50 48/48/49 28/28/28 
f 36/36/37 49/49/50 30/30/30 4/4/4 
f 31/31/32 34/34/35 36/36/37 35/35/36 
f 37/37/38 32/32/33 31/31/32 35/35/36 
f 50/50/51 32/32/33 37/37/38 38/38/39 
f 39/39/40 51/51/52 50/50/51 38/38/39 
f 52/52/53 40/40/41 41/41/42 53/53/54 
f 42/42/43 54/54/55 53/53/54 41/41/42 
f 54/54/55 42/42/43 43/43/44 55/55/56 
f 55/55/56 43/43/44 44/44/45 56/56/57 
f 56/56/57 44/44/45 45/45/46 57/57/58 
f 46/46/47 58/58/59 57/57/58 45/45/46 
f 58/58/59 46/46/47 47/47/48 59/59/60 
f 48/48/49 60/60/61 59/59/60 47/47/48 
f 33/33/34 60/60/61 48/48/49 49/49/50 
f 33/33/34 49/49/50 36/36/37 34/34/35 
f 54/54/55 55/55/56 56/56/57 
f 54/54/55 56/56/57 57/57/58 53/53/54 
f 52/52/53 51/51/52 39/39/40 40/40/41 
f 52/52/53 53/53/54 57/57/58 58/58/59 
f 59/59/60 51/51/52 52/52/53 58/58/59 
f 60/60/61 50/50/51 51/51/52 59/59/60 
f 33/33/34 32/32/33 50/50/51 60/60/61 
# 51 polygons - 1 triangles

