# 3ds Max Wavefront OBJ Exporter v0.99 - (c)2007 guruware
# File Created: 28.08.2024 17:50:14

mtllib H_SecretDoor1.mtl

#
# object H_SecretDoor1
#

v  -3247.4414 -9916.4102 -765.7500
v  -3263.6152 -9928.5156 736.5312
v  -5652.1074 -9928.5127 568.9141
v  -5649.8047 -9923.2344 -699.0107
v  5580.1602 -9923.5254 -738.6483
v  5588.3730 -9910.5156 748.9570
v  -5751.5703 -9770.8418 -685.5166
v  -5749.4453 -9771.9512 581.1992
v  5487.2559 4372.3945 366.8398
v  5488.4609 4425.6309 -724.4043
v  5318.1484 5261.4253 -757.9297
v  5323.9141 5235.9551 743.5977
v  4160.1719 7770.3057 -633.9922
v  4080.5176 7871.3262 767.0293
v  2001.2402 9447.7422 -722.1973
v  1904.9316 9488.4785 724.2480
v  92.2969 9895.4414 -760.9609
v  65.2412 9897.7051 747.7070
v  -2087.7754 9403.9609 -754.0703
v  -2143.7480 9372.3125 777.8164
v  -3907.4453 8028.8203 736.1621
v  -3962.1836 7969.1055 -736.1660
v  -5110.9395 5987.9922 739.1523
v  -5128.5469 5923.1602 -762.4922
v  -5626.9082 -9793.2930 -832.4990
v  -4724.4287 -9364.9629 838.2656
v  -3292.9160 -9800.9717 830.2148
v  4940.1201 4318.8413 828.6953
v  5135.1025 5327.1821 840.2969
v  3975.1543 7789.6475 853.9844
v  1927.5820 9383.5039 844.1484
v  72.5107 9757.9609 844.1562
v  -2163.3672 9255.4990 851.8516
v  -3846.1392 7924.8262 847.8906
v  -4990.3408 5968.9307 839.1328
v  -2357.1011 -7175.0479 824.1172
v  -585.6309 -7384.3970 844.1875
v  2582.1948 5551.4443 877.8906
v  3182.9504 3135.2876 933.3203
v  1844.8870 6876.7217 835.4375
v  821.2242 7543.1445 845.9219
v  -257.3041 7724.5908 848.9688
v  -1552.3671 7384.1235 857.2891
v  627.9019 5923.0171 894.7578
v  -483.9719 6363.6626 855.3047
v  -2739.6792 6215.1797 868.8672
v  -3442.7266 4668.9443 840.8047
v  -1403.8247 5103.8511 836.7109
v  -2161.8867 3857.7266 878.1406
v  640.1199 4883.6069 829.8281
v  -386.9070 3860.2427 1046.0781
v  1271.8542 1576.1001 1051.3125
v  -38.2888 2215.0166 1237.5312
v  -1460.2473 -5782.2910 967.2969
v  90.5421 -5980.6357 1198.3203
v  -535.8549 -4911.9966 1144.6328
v  -2338.7742 -5320.9214 1226.9219
v  -2738.4719 2896.8057 999.2656
v  -595.6260 444.6151 1200.3516
v  -2577.3445 -801.5735 821.9375
v  -4345.6792 -6827.6826 843.9219
v  -4230.9355 2636.2981 895.6719
v  -4732.8574 -1432.2964 985.2734
v  -5516.8418 3207.9641 855.6719
v  -5613.3574 -8727.5010 834.8281
v  -5646.1504 3218.9326 699.4141
v  -5731.1562 -8873.3574 770.0273
v  -5611.7461 -1196.8877 847.8047
v  -5720.6758 -1235.6145 703.9609
v  -5649.7305 3160.4641 -739.8838
v  -5755.4453 -9012.1055 -714.0889
v  -5721.2266 -1064.6113 -727.2373
v  -3246.2903 -9822.3184 -843.5957
v  -5625.8438 -8967.7607 -836.6523
v  -5523.8203 -1085.4805 -847.5977
v  -5545.0840 3153.2375 -853.9570
v  -5056.5908 5866.5322 -841.5820
v  -3933.0830 7908.3701 -841.3730
v  -2082.8159 9319.0703 -850.9570
v  57.6914 9756.4707 -845.0957
v  1961.4824 9355.9297 -845.0703
v  4085.9082 7717.1768 -856.5547
v  5143.7383 5167.1777 -841.4180
v  5374.3008 4420.8721 -826.8398
v  -1085.4502 -7328.6562 -839.3281
v  3305.9814 4463.6494 -851.6875
v  3027.8604 5184.5566 -841.8594
v  2499.3066 5992.4512 -881.5312
v  1229.5586 6920.6738 -840.9219
v  323.3691 7085.1738 -901.3047
v  -1257.1816 7407.3984 -871.7734
v  -2163.9141 6570.3789 -848.9297
v  -982.6289 5925.6055 -860.2031
v  -3034.5996 4936.1035 -845.5625
v  -4062.3457 2614.5078 -954.6641
v  -4717.1826 -1193.0918 -981.7969
v  -4329.0088 -6093.6943 -851.8984
v  -3502.8643 -4427.4712 -970.5312
v  -2756.1323 -1547.9906 -822.8750
v  136.6094 -5248.0332 -1238.0547
v  4614.1074 -7201.8623 -847.5312
v  225.3887 -1707.0352 -1152.6328
v  4257.7139 -1549.7617 -810.6641
v  5598.2451 -9770.0449 -836.1777
v  3965.9580 2940.6016 -842.5703
v  5522.3984 3121.7500 -841.0352
v  5510.5625 -1746.9805 -843.5469
v  5728.0840 -9794.7559 723.8086
v  5721.8516 -9806.5918 -725.2928
v  5638.1875 3165.7271 -716.3340
v  5720.3594 -1744.8174 -703.6562
v  5619.8906 3279.6309 745.0352
v  5688.4453 -1780.8135 777.2383
v  5616.6201 -9748.0732 838.3047
v  5538.8418 3196.3931 827.7188
v  5535.2656 -1790.1021 842.8906
v  3239.1699 -7533.3447 832.1094
v  4439.9141 827.1990 1068.5312
v  3988.4502 -2095.7051 812.9297
v  2052.3110 -5624.0479 1114.9531
v  1237.7207 -131.5737 831.7734
v  1550.2930 -2173.9604 843.8906
v  198.7957 -4003.4395 1102.1094
v  879.2109 1045.3281 -1163.2656
v  -3053.9385 2735.5088 -1042.1016
v  -1069.6207 1346.7449 -1123.0547
v  1436.3418 3727.9199 -1076.3984
v  1178.9209 4563.5254 -828.7109
v  951.6377 5557.7012 -838.7188
v  635.7637 6205.7266 -845.1406
v  112.5861 5245.4189 -845.9453
v  86.7590 2473.0320 -1258.7500
v  -1581.4701 2925.5115 -844.0859
v  63.2332 4013.4465 -1090.7578
v  -1896.3369 4374.9180 -828.2656
v  -1170.6069 3793.6326 -1049.7891
v  -28.0037 4409.8174 -882.9297
# 137 vertices

vn -0.0045 -0.9014 -0.4330
vn -0.0136 -0.8911 0.4536
vn -0.4248 -0.7478 0.5103
vn -0.4364 -0.8327 -0.3408
vn 0.2943 -0.8534 -0.4302
vn 0.2983 -0.8352 0.4620
vn -0.9178 -0.2603 -0.2998
vn -0.7825 -0.2797 0.5562
vn 0.9317 0.1350 0.3372
vn 0.9082 0.1376 -0.3952
vn 0.7959 0.2682 -0.5429
vn 0.8048 0.0682 0.5896
vn 0.7745 0.6055 -0.1830
vn 0.6855 0.5730 0.4491
vn 0.4187 0.8497 -0.3205
vn 0.3745 0.8772 0.3004
vn 0.0164 0.8834 -0.4683
vn -0.0045 0.8987 0.4385
vn -0.3888 0.8630 -0.3226
vn -0.3706 0.8207 0.4348
vn -0.6877 0.6233 0.3721
vn -0.7239 0.6413 -0.2545
vn -0.8560 0.3185 0.4073
vn -0.8599 0.3230 -0.3952
vn -0.3782 -0.3355 -0.8628
vn -0.0616 -0.1510 0.9866
vn -0.0597 -0.3499 0.9349
vn 0.3096 0.0316 0.9503
vn 0.3119 0.0743 0.9472
vn 0.2494 0.1996 0.9476
vn 0.2467 0.4567 0.8547
vn -0.0004 0.3338 0.9427
vn -0.1905 0.3257 0.9261
vn -0.3281 0.2647 0.9068
vn -0.3482 0.1386 0.9271
vn -0.0081 -0.0409 0.9991
vn -0.0131 -0.1169 0.9931
vn -0.0040 0.0270 0.9996
vn 0.0248 0.0481 0.9985
vn 0.0045 0.0137 0.9999
vn 0.0060 -0.0011 1.0000
vn 0.0045 0.0045 1.0000
vn 0.0054 0.0043 1.0000
vn 0.0129 -0.0174 0.9998
vn -0.0140 0.0065 0.9999
vn -0.0043 -0.0057 1.0000
vn -0.0082 0.0093 0.9999
vn 0.0135 0.0053 0.9999
vn -0.0387 0.1104 0.9931
vn 0.0083 0.0294 0.9995
vn -0.0341 0.1820 0.9827
vn 0.1145 -0.0611 0.9915
vn 0.0703 0.0632 0.9955
vn -0.0949 -0.3964 0.9132
vn -0.0138 -0.1189 0.9928
vn 0.0251 0.0400 0.9989
vn -0.0480 -0.1239 0.9911
vn -0.0810 0.0759 0.9938
vn -0.0283 0.0100 0.9996
vn -0.0673 0.0226 0.9975
vn -0.0151 -0.0468 0.9988
vn -0.0451 0.0340 0.9984
vn -0.0464 -0.0057 0.9989
vn -0.4521 0.0504 0.8905
vn -0.2449 -0.0723 0.9669
vn -0.9385 0.0967 0.3315
vn -0.7918 -0.0890 0.6043
vn -0.5158 0.0049 0.8567
vn -0.9484 0.0095 0.3169
vn -0.9296 0.0913 -0.3569
vn -0.9193 -0.0097 -0.3934
vn -0.8728 0.0085 -0.4880
vn -0.0035 -0.3382 -0.9411
vn -0.3712 -0.0007 -0.9286
vn -0.3478 0.0001 -0.9376
vn -0.4468 0.0411 -0.8937
vn -0.3761 0.1237 -0.9183
vn -0.4271 0.3432 -0.8365
vn -0.2172 0.4310 -0.8758
vn -0.0074 0.3111 -0.9504
vn 0.1990 0.4327 -0.8793
vn 0.4892 0.3762 -0.7868
vn 0.1966 0.0565 -0.9789
vn 0.3771 0.0788 -0.9228
vn -0.0155 -0.0737 -0.9972
vn 0.0576 0.0286 -0.9979
vn -0.0011 -0.0210 -0.9998
vn 0.0006 -0.0158 -0.9999
vn 0.0140 -0.0055 -0.9999
vn 0.0327 -0.0220 -0.9992
vn -0.0209 -0.0009 -0.9998
vn -0.0100 -0.0050 -0.9999
vn -0.0064 -0.0181 -0.9998
vn 0.0139 0.0159 -0.9998
vn -0.0708 0.0436 -0.9965
vn -0.0530 -0.0083 -0.9986
vn 0.0059 -0.0286 -0.9996
vn -0.2542 0.0848 -0.9634
vn -0.0212 0.0073 -0.9997
vn -0.0044 -0.0649 -0.9979
vn 0.0314 -0.0088 -0.9995
vn -0.0186 0.0137 -0.9997
vn 0.0288 0.0011 -0.9996
vn 0.3239 -0.2485 -0.9129
vn 0.0420 0.0049 -0.9991
vn 0.4068 0.0242 -0.9132
vn 0.2760 0.0009 -0.9612
vn 0.8583 -0.3785 0.3465
vn 0.8463 -0.3812 -0.3721
vn 0.9297 0.0623 -0.3631
vn 0.8876 0.0076 -0.4605
vn 0.8582 0.1825 0.4798
vn 0.8281 0.0077 0.5605
vn 0.3553 -0.2214 0.9081
vn 0.4413 0.0846 0.8934
vn 0.1906 0.0022 0.9817
vn 0.0231 -0.0221 0.9995
vn 0.2232 -0.0712 0.9722
vn 0.0005 -0.0396 0.9992
vn 0.2206 0.0407 0.9745
vn 0.0729 -0.0413 0.9965
vn 0.0707 0.0425 0.9966
vn 0.0716 0.0285 0.9970
vn 0.0637 -0.0224 -0.9977
vn -0.0064 0.0560 -0.9984
vn -0.1168 0.0586 -0.9914
vn 0.0580 0.1308 -0.9897
vn -0.0122 0.1431 -0.9896
vn -0.0071 -0.0125 -0.9999
vn 0.0106 -0.0036 -0.9999
vn 0.0123 0.0255 -0.9996
vn -0.0229 -0.0173 -0.9996
vn -0.0071 -0.0526 -0.9986
vn 0.0033 0.3125 -0.9499
vn -0.0240 0.1013 -0.9946
vn -0.1248 -0.0025 -0.9922
vn -0.0148 0.2660 -0.9639
# 137 vertex normals

vt 0.1631 0.1010 0.0000
vt 0.1639 0.1568 0.0000
vt 0.0730 0.1560 0.0000
vt 0.0721 0.1079 0.0000
vt 0.4952 0.0996 0.0000
vt 0.4973 0.1555 0.0000
vt 0.0227 0.1617 0.0000
vt 0.0234 0.1545 0.0000
vt 0.0699 0.1634 0.0000
vt 0.5032 0.6937 0.0000
vt 0.5438 0.7056 0.0000
vt 0.5344 0.7453 0.0000
vt 0.4843 0.7229 0.0000
vt 0.4749 0.8468 0.0000
vt 0.4352 0.8171 0.0000
vt 0.3810 0.9213 0.0000
vt 0.3571 0.8756 0.0000
vt 0.2921 0.9417 0.0000
vt 0.2915 0.8880 0.0000
vt 0.1928 0.9206 0.0000
vt 0.2124 0.8697 0.0000
vt 0.1471 0.8243 0.0000
vt 0.1073 0.8590 0.0000
vt 0.1010 0.7518 0.0000
vt 0.0505 0.7723 0.0000
vt 0.9817 0.1598 0.0000
vt 0.9868 0.1659 0.0000
vt 0.9799 0.1662 0.0000
vt 0.1093 0.1779 0.0000
vt 0.1628 0.1617 0.0000
vt 0.4741 0.6886 0.0000
vt 0.4782 0.7251 0.0000
vt 0.4335 0.8144 0.0000
vt 0.3585 0.8715 0.0000
vt 0.2919 0.8842 0.0000
vt 0.2108 0.8670 0.0000
vt 0.1486 0.8204 0.0000
vt 0.1047 0.7503 0.0000
vt 0.1981 0.2590 0.0000
vt 0.2644 0.2509 0.0000
vt 0.3835 0.7318 0.0000
vt 0.4073 0.6429 0.0000
vt 0.3557 0.7799 0.0000
vt 0.3183 0.8033 0.0000
vt 0.2789 0.8095 0.0000
vt 0.2311 0.7979 0.0000
vt 0.3109 0.7445 0.0000
vt 0.2697 0.7602 0.0000
vt 0.1869 0.7560 0.0000
vt 0.1599 0.7000 0.0000
vt 0.2355 0.7141 0.0000
vt 0.2068 0.6690 0.0000
vt 0.3116 0.7068 0.0000
vt 0.2733 0.6687 0.0000
vt 0.3356 0.5839 0.0000
vt 0.2860 0.6079 0.0000
vt 0.2317 0.3106 0.0000
vt 0.2899 0.3041 0.0000
vt 0.2663 0.3434 0.0000
vt 0.1989 0.3286 0.0000
vt 0.1848 0.6344 0.0000
vt 0.2645 0.5434 0.0000
vt 0.1886 0.4972 0.0000
vt 0.1235 0.2725 0.0000
vt 0.1288 0.6258 0.0000
vt 0.1077 0.4744 0.0000
vt 0.0816 0.6490 0.0000
vt 0.0770 0.2024 0.0000
vt 0.0749 0.6512 0.0000
vt 0.0734 0.1980 0.0000
vt 0.0741 0.4845 0.0000
vt 0.0669 0.4845 0.0000
vt 0.0220 0.6583 0.0000
vt 0.0187 0.1915 0.0000
vt 0.0133 0.4929 0.0000
vt 0.8907 0.1596 0.0000
vt 0.8908 0.1642 0.0000
vt 0.9870 0.1951 0.0000
vt 0.9803 0.1968 0.0000
vt 0.9845 0.4932 0.0000
vt 0.9759 0.4923 0.0000
vt 0.9807 0.6518 0.0000
vt 0.9750 0.6513 0.0000
vt 0.9594 0.7553 0.0000
vt 0.9557 0.7528 0.0000
vt 0.9158 0.8326 0.0000
vt 0.9131 0.8289 0.0000
vt 0.8445 0.8859 0.0000
vt 0.8436 0.8813 0.0000
vt 0.7621 0.9032 0.0000
vt 0.7634 0.8972 0.0000
vt 0.6899 0.8871 0.0000
vt 0.6923 0.8819 0.0000
vt 0.6066 0.8255 0.0000
vt 0.6133 0.8203 0.0000
vt 0.5670 0.7288 0.0000
vt 0.5738 0.7251 0.0000
vt 0.5595 0.6978 0.0000
vt 0.5652 0.6972 0.0000
vt 0.8098 0.2571 0.0000
vt 0.6427 0.6985 0.0000
vt 0.6531 0.7255 0.0000
vt 0.6727 0.7559 0.0000
vt 0.7201 0.7908 0.0000
vt 0.7540 0.7972 0.0000
vt 0.8131 0.8095 0.0000
vt 0.8473 0.7784 0.0000
vt 0.8032 0.7541 0.0000
vt 0.8803 0.7174 0.0000
vt 0.9196 0.6307 0.0000
vt 0.9454 0.4881 0.0000
vt 0.9314 0.3042 0.0000
vt 0.9002 0.3665 0.0000
vt 0.8720 0.4744 0.0000
vt 0.7637 0.3356 0.0000
vt 0.5961 0.2610 0.0000
vt 0.7598 0.4678 0.0000
vt 0.6085 0.4730 0.0000
vt 0.5576 0.1571 0.0000
vt 0.5596 0.1643 0.0000
vt 0.6180 0.6415 0.0000
vt 0.5592 0.6484 0.0000
vt 0.5624 0.4655 0.0000
vt 0.5011 0.1618 0.0000
vt 0.5543 0.1629 0.0000
vt 0.5524 0.6513 0.0000
vt 0.5538 0.4651 0.0000
vt 0.4982 0.6509 0.0000
vt 0.4990 0.4621 0.0000
vt 0.4963 0.1625 0.0000
vt 0.4954 0.6469 0.0000
vt 0.4933 0.4606 0.0000
vt 0.4078 0.2451 0.0000
vt 0.4540 0.5577 0.0000
vt 0.4361 0.4486 0.0000
vt 0.3632 0.3166 0.0000
vt 0.3341 0.5209 0.0000
vt 0.3453 0.4456 0.0000
vt 0.2939 0.3772 0.0000
vt 0.7345 0.5704 0.0000
vt 0.8819 0.6349 0.0000
vt 0.8075 0.5823 0.0000
vt 0.7131 0.6706 0.0000
vt 0.7225 0.7030 0.0000
vt 0.7308 0.7401 0.0000
vt 0.7425 0.7643 0.0000
vt 0.7623 0.7286 0.0000
vt 0.7636 0.6237 0.0000
vt 0.8270 0.6415 0.0000
vt 0.7644 0.6812 0.0000
vt 0.8378 0.6962 0.0000
vt 0.8106 0.6735 0.0000
vt 0.7678 0.6975 0.0000
# 153 texture coords

o H_SecretDoor1
g H_SecretDoor1
usemtl H_SecretDoor1
s 1
f 1/1/1 2/2/2 3/3/3 4/4/4 
f 5/5/5 6/6/6 2/2/2 1/1/1 
f 7/7/7 4/8/4 3/3/3 8/9/8 
f 9/10/9 10/11/10 11/12/11 12/13/12 
f 12/13/12 11/12/11 13/14/13 14/15/14 
f 14/15/14 13/14/13 15/16/15 16/17/16 
f 17/18/17 18/19/18 16/17/16 15/16/15 
f 18/19/18 17/18/17 19/20/19 20/21/20 
f 21/22/21 20/21/20 19/20/19 22/23/22 
f 23/24/23 21/22/21 22/23/22 24/25/24 
f 4/26/4 7/27/7 25/28/25 
f 26/29/26 8/9/8 3/3/3 
f 26/29/26 3/3/3 2/2/2 27/30/27 
f 28/31/28 9/10/9 12/13/12 29/32/29 
f 29/32/29 12/13/12 14/15/14 30/33/30 
f 31/34/31 30/33/30 14/15/14 16/17/16 
f 32/35/32 31/34/31 16/17/16 18/19/18 
f 32/35/32 18/19/18 20/21/20 33/36/33 
f 21/22/21 34/37/34 33/36/33 20/21/20 
f 34/37/34 21/22/21 23/24/23 35/38/35 
f 36/39/36 26/29/26 27/30/27 37/40/37 
f 38/41/38 39/42/39 28/31/28 29/32/29 
f 38/41/38 29/32/29 30/33/30 40/43/40 
f 40/43/40 30/33/30 31/34/31 41/44/41 
f 41/44/41 31/34/31 32/35/32 42/45/42 
f 42/45/42 32/35/32 33/36/33 43/46/43 
f 44/47/44 40/43/40 41/44/41 45/48/45 
f 45/48/45 41/44/41 42/45/42 43/46/43 
f 43/46/43 33/36/33 34/37/34 46/49/46 
f 46/49/46 34/37/34 35/38/35 47/50/47 
f 45/48/45 43/46/43 46/49/46 48/51/48 
f 48/51/48 46/49/46 47/50/47 49/52/49 
f 50/53/50 44/47/44 45/48/45 48/51/48 
f 38/41/38 40/43/40 44/47/44 50/53/50 
f 48/51/48 49/52/49 51/54/51 50/53/50 
f 39/42/39 38/41/38 50/53/50 52/55/52 
f 50/53/50 51/54/51 53/56/53 52/55/52 
f 54/57/54 36/39/36 37/40/37 55/58/55 
f 54/57/54 55/58/55 56/59/56 57/60/57 
f 51/54/51 49/52/49 58/61/58 53/56/53 
f 57/60/57 59/62/59 60/63/60 
f 36/39/36 54/57/54 57/60/57 61/64/61 
f 58/61/58 49/52/49 47/50/47 62/65/62 
f 60/63/60 58/61/58 62/65/62 63/66/63 
f 57/60/57 60/63/60 63/66/63 61/64/61 
f 47/50/47 35/38/35 64/67/64 62/65/62 
f 26/29/26 36/39/36 61/64/61 65/68/65 
f 64/67/64 35/38/35 23/24/23 66/69/66 
f 8/9/8 26/29/26 65/68/65 67/70/67 
f 62/65/62 64/67/64 68/71/68 63/66/63 
f 61/64/61 63/66/63 68/71/68 65/68/65 
f 68/71/68 64/67/64 66/69/66 69/72/69 
f 69/72/69 67/70/67 65/68/65 68/71/68 
f 66/69/66 23/24/23 24/25/24 70/73/70 
f 8/9/8 67/70/67 71/74/71 7/7/7 
f 66/69/66 70/73/70 72/75/72 69/72/69 
f 71/74/71 67/70/67 69/72/69 72/75/72 
f 1/76/1 4/26/4 25/28/25 73/77/73 
f 25/28/25 7/27/7 71/78/71 74/79/74 
f 71/78/71 72/80/72 75/81/75 74/79/74 
f 72/80/72 70/82/70 76/83/76 75/81/75 
f 70/82/70 24/84/24 77/85/77 76/83/76 
f 24/84/24 22/86/22 78/87/78 77/85/77 
f 22/86/22 19/88/19 79/89/79 78/87/78 
f 19/88/19 17/90/17 80/91/80 79/89/79 
f 17/90/17 15/92/15 81/93/81 80/91/80 
f 15/92/15 13/94/13 82/95/82 81/93/81 
f 82/95/82 13/94/13 11/96/11 83/97/83 
f 83/97/83 11/96/11 10/98/10 84/99/84 
f 73/77/73 25/28/25 74/79/74 85/100/85 
f 83/97/83 84/99/84 86/101/86 87/102/87 
f 82/95/82 83/97/83 87/102/87 88/103/88 
f 89/104/89 81/93/81 82/95/82 88/103/88 
f 90/105/90 80/91/80 81/93/81 89/104/89 
f 91/106/91 79/89/79 80/91/80 90/105/90 
f 78/87/78 79/89/79 91/106/91 92/107/92 
f 91/106/91 90/105/90 93/108/93 92/107/92 
f 77/85/77 78/87/78 92/107/92 94/109/94 
f 76/83/76 77/85/77 94/109/94 95/110/95 
f 75/81/75 76/83/76 95/110/95 96/111/96 
f 97/112/97 74/79/74 75/81/75 96/111/96 
f 97/112/97 85/100/85 74/79/74 
f 98/113/98 97/112/97 96/111/96 99/114/99 
f 85/100/85 97/112/97 98/113/98 100/115/100 
f 101/116/101 85/100/85 100/115/100 
f 100/115/100 102/117/102 103/118/103 101/116/101 
f 5/119/5 1/76/1 73/77/73 104/120/104 
f 104/120/104 73/77/73 85/100/85 101/116/101 
f 105/121/105 86/101/86 84/99/84 106/122/106 
f 107/123/107 104/120/104 101/116/101 103/118/103 
f 103/118/103 105/121/105 106/122/106 107/123/107 
f 108/124/108 6/6/6 5/119/5 109/125/109 
f 109/125/109 5/119/5 104/120/104 
f 84/99/84 10/98/10 110/126/110 106/122/106 
f 109/125/109 104/120/104 107/123/107 111/127/111 
f 111/127/111 107/123/107 106/122/106 110/126/110 
f 110/126/110 10/11/10 9/10/9 112/128/112 
f 108/124/108 109/125/109 111/127/111 113/129/113 
f 113/129/113 111/127/111 110/126/110 112/128/112 
f 27/30/27 2/2/2 6/6/6 114/130/114 
f 114/130/114 6/6/6 108/124/108 
f 112/128/112 9/10/9 28/31/28 115/131/115 
f 108/124/108 113/129/113 116/132/116 114/130/114 
f 113/129/113 112/128/112 115/131/115 116/132/116 
f 37/40/37 27/30/27 114/130/114 117/133/117 
f 115/131/115 28/31/28 39/42/39 118/134/118 
f 117/133/117 114/130/114 116/132/116 119/135/119 
f 116/132/116 115/131/115 118/134/118 119/135/119 
f 120/136/120 55/58/55 37/40/37 117/133/117 
f 118/134/118 39/42/39 52/55/52 121/137/121 
f 52/55/52 53/56/53 59/62/59 121/137/121 
f 59/62/59 53/56/53 58/61/58 60/63/60 
f 122/138/122 121/137/121 59/62/59 123/139/123 
f 123/139/123 59/62/59 57/60/57 56/59/56 
f 55/58/55 120/136/120 123/139/123 56/59/56 
f 123/139/123 120/136/120 122/138/122 
f 120/136/120 117/133/117 119/135/119 122/138/122 
f 119/135/119 118/134/118 121/137/121 122/138/122 
f 124/140/124 105/121/105 103/118/103 102/117/102 
f 102/117/102 100/115/100 98/113/98 99/114/99 
f 96/111/96 95/110/95 125/141/125 99/114/99 
f 102/117/102 99/114/99 126/142/126 124/140/124 
f 105/121/105 124/140/124 127/143/127 86/101/86 
f 86/101/86 127/143/127 128/144/128 87/102/87 
f 88/103/88 87/102/87 128/144/128 129/145/129 
f 89/104/89 88/103/88 129/145/129 130/146/130 
f 130/146/130 129/145/129 131/147/131 93/108/93 
f 90/105/90 89/104/89 130/146/130 93/108/93 
f 132/148/132 124/140/124 126/142/126 133/149/133 
f 126/142/126 99/114/99 125/141/125 133/149/133 
f 127/143/127 124/140/124 132/148/132 134/150/134 
f 125/141/125 95/110/95 94/109/94 135/151/135 
f 132/148/132 133/149/133 136/152/136 134/150/134 
f 92/107/92 93/108/93 135/151/135 94/109/94 
f 93/108/93 131/147/131 137/153/137 135/151/135 
f 133/149/133 125/141/125 135/151/135 136/152/136 
f 137/153/137 134/150/134 136/152/136 135/151/135 
f 128/144/128 127/143/127 134/150/134 137/153/137 
f 131/147/131 129/145/129 128/144/128 137/153/137 
# 131 polygons - 8 triangles

