# 3ds Max Wavefront OBJ Exporter v0.99 - (c)2007 guruware
# File Created: 16.07.2024 02:45:24

mtllib ?????\???\B_F_SmallWall_.mtl

#
# object B_F_SmallWall_
#

v  -1812.8550 -1159.7100 -0.0002
v  -1812.8550 1340.2900 0.0002
v  2187.1450 1340.2900 0.0002
v  2187.1450 -1159.7100 -0.0002
v  -1812.8550 -1159.7100 249.9998
v  2187.1450 -1159.7100 249.9998
v  2187.1450 1340.2900 250.0002
v  -1812.8550 1340.2900 250.0002
# 8 vertices

vn -0.5774 -0.5774 -0.5774
vn -0.5774 0.5774 -0.5774
vn 0.5774 0.5774 -0.5774
vn 0.5774 -0.5774 -0.5774
vn -0.5774 -0.5774 0.5774
vn 0.5774 -0.5774 0.5774
vn 0.5774 0.5774 0.5774
vn -0.5774 0.5774 0.5774
# 8 vertex normals

vt 1.9413 1.1453 0.0000
vt 1.9413 2.1453 0.0000
vt 0.9413 2.1453 0.0000
vt 0.9413 1.1453 0.0000
vt 0.0155 0.0132 0.0000
vt 0.9891 0.0132 0.0000
vt 0.9891 0.9868 0.0000
vt 0.0155 0.9868 0.0000
vt 0.4999 0.5000 0.0000
vt 0.5000 0.5000 0.0000
vt 0.5000 0.5001 0.0000
vt 0.4999 0.5001 0.0000
vt 1.4930 -0.4127 0.0000
vt 2.4930 -0.4127 0.0000
vt 2.4930 0.5873 0.0000
vt 1.4930 0.5873 0.0000
vt 0.0162 -1.4119 0.0000
vt 1.0162 -1.4119 0.0000
vt 1.0162 -0.4119 0.0000
vt 0.0162 -0.4119 0.0000
# 20 texture coords

o B_F_SmallWall_
g B_F_SmallWall_
usemtl B_F_SmallWall_
s 2
f 1/1/1 2/2/2 3/3/3 4/4/4 
s 4
f 5/5/5 6/6/6 7/7/7 8/8/8 
s 8
f 1/9/1 4/10/4 6/11/6 5/12/5 
s 16
f 4/9/4 3/10/3 7/11/7 6/12/6 
s 32
f 3/13/3 2/14/2 8/15/8 7/16/7 
s 64
f 2/17/2 1/18/1 5/19/5 8/20/8 
# 6 polygons

