# 3ds Max Wavefront OBJ Exporter v0.99 - (c)2007 guruware
# File Created: 07.07.2024 12:46:06

mtllib fireplace.mtl

#
# object default001
#

v  -0.1071 2.2426 0.5993
v  -0.0655 2.2328 0.5552
v  -0.0618 2.4969 0.5521
v  -0.1141 2.5126 0.6012
v  -0.0228 2.2437 0.5939
v  -0.0297 2.5005 0.5921
v  0.0234 2.2378 0.5887
v  0.0213 2.4966 0.5953
v  0.0633 2.2272 0.5578
v  0.0637 2.4902 0.5493
v  0.1067 2.2369 0.5976
v  0.1057 2.4933 0.6013
v  -0.1504 2.5097 0.5784
v  -0.1486 2.2415 0.5793
v  0.1565 2.2310 0.5736
v  0.1524 2.4836 0.5760
v  -1.5162 2.5438 0.5980
v  -1.1349 2.5426 0.5980
v  -1.2194 2.5452 -0.5923
v  -1.5176 2.5410 -0.5921
v  1.1456 2.5386 0.5980
v  1.5138 2.5370 0.5935
v  1.5131 2.5450 -0.5922
v  1.1467 2.5452 -0.5938
v  -0.1718 2.5410 0.5719
v  -1.1183 2.5438 0.5726
v  -0.1109 2.5429 0.5726
v  -1.1413 2.5452 -0.5754
v  -0.0564 2.5408 0.5695
v  -0.0570 2.5452 -0.5713
v  -0.0226 2.5420 0.5683
v  0.0226 2.5397 0.5720
v  0.0591 2.5452 -0.5718
v  0.0624 2.5407 0.5695
v  0.1128 2.5409 0.5784
v  0.1789 2.5452 -0.5637
v  0.2479 2.5452 -0.5597
v  0.1947 2.5428 0.5718
v  1.1065 2.5452 -0.5614
v  1.1193 2.5429 0.5719
v  1.5082 2.1713 0.5979
v  1.1388 2.1723 0.5980
v  1.5138 2.1746 -0.5898
v  1.1528 2.1654 -0.5768
v  1.1165 2.1709 0.5726
v  -1.1367 2.1712 0.5979
v  -1.1125 2.1655 0.5722
v  -1.5176 2.1702 0.5959
v  -1.5176 2.1687 -0.5959
v  -1.1388 2.1654 -0.5890
v  -0.1748 2.1732 0.5725
v  -0.1057 2.1735 0.5720
v  -0.0613 2.1727 0.5710
v  -1.1166 2.1654 -0.5607
v  -0.0243 2.1725 0.5706
v  0.0276 2.1725 0.5706
v  0.0752 2.1692 0.5698
v  -0.0750 2.1654 -0.5715
v  0.1138 2.1674 0.5691
v  0.2336 2.1725 -0.5726
v  0.1715 2.1701 0.5719
v  1.0553 2.1661 -0.5723
v  1.5416 2.6098 -0.6309
v  -1.5558 2.6097 -0.6421
v  -1.5503 2.6098 0.6366
v  1.5531 2.6098 0.6360
v  -1.5978 2.5831 -0.6575
v  -1.5977 2.5801 0.6579
v  1.5917 2.5899 0.6541
v  1.5900 2.5849 -0.6569
v  -1.5978 2.5639 -0.6570
v  -1.5859 2.5594 0.6557
v  1.5979 2.5684 0.6548
v  -1.5640 2.5389 0.6427
v  1.5561 2.5385 0.6378
v  1.5889 2.5597 -0.6558
v  -1.5656 2.5391 -0.6375
v  1.5547 2.5385 -0.6378
v  -1.1271 0.1451 -0.5941
v  -1.1305 2.2347 -0.5915
v  -1.1377 2.2278 0.5907
v  -1.1344 0.1528 0.5862
v  -1.5045 0.1422 -0.5904
v  -1.4996 2.2314 -0.5945
v  -1.4989 2.2271 0.5906
v  -1.5000 0.1562 0.5866
v  1.5093 0.1451 -0.5941
v  1.5059 2.2347 -0.5915
v  1.4987 2.2278 0.5907
v  1.5020 0.1528 0.5862
v  1.1319 0.1422 -0.5904
v  1.1368 2.2314 -0.5945
v  1.1375 2.2271 0.5906
v  1.1364 0.1562 0.5866
v  0.9973 2.0580 0.4326
v  -1.0158 2.0677 0.4326
v  -0.7481 1.8207 -0.5902
v  0.7343 1.8252 -0.5796
v  1.3245 2.2598 0.4323
v  -1.3410 2.2505 0.4272
v  -1.0158 0.4964 0.4326
v  -0.7481 0.5008 -0.5902
v  0.9973 0.5061 0.4326
v  0.7343 0.5077 -0.5796
v  -1.3410 0.2189 0.4272
v  1.3245 0.2096 0.4323
v  -1.1995 0.7620 0.4998
v  1.1990 0.7620 0.4998
v  1.1990 0.7213 0.4998
v  -1.1995 0.7213 0.4998
v  -1.1995 0.7620 0.5390
v  -1.1995 0.7213 0.5390
v  1.1990 0.7213 0.5390
v  1.1990 0.7620 0.5390
v  -1.1995 0.4276 0.4998
v  1.1990 0.4276 0.4998
v  1.1990 0.3869 0.4998
v  -1.1995 0.3869 0.4998
v  -1.1995 0.4276 0.5390
v  -1.1995 0.3869 0.5390
v  1.1990 0.3869 0.5390
v  1.1990 0.4276 0.5390
v  -0.9684 0.8626 0.4830
v  -0.9684 0.0858 0.4830
v  -1.0404 0.0858 0.4830
v  -1.0404 0.8626 0.4830
v  -0.9684 0.8626 0.5522
v  -1.0404 0.8626 0.5522
v  -1.0404 0.0858 0.5522
v  -0.9684 0.0858 0.5522
v  -0.5751 1.0201 0.4830
v  -0.5751 0.0858 0.4830
v  -0.6471 0.0858 0.4830
v  -0.6471 1.0201 0.4830
v  -0.5751 1.0201 0.5522
v  -0.6471 1.0201 0.5522
v  -0.6471 0.0858 0.5522
v  -0.5751 0.0858 0.5522
v  -0.1732 1.1004 0.4830
v  -0.1732 0.0858 0.4830
v  -0.2452 0.0858 0.4830
v  -0.2452 1.1004 0.4830
v  -0.1732 1.1004 0.5522
v  -0.2452 1.1004 0.5522
v  -0.2452 0.0858 0.5522
v  -0.1732 0.0858 0.5522
v  0.2282 1.1004 0.4830
v  0.2282 0.0858 0.4830
v  0.1562 0.0858 0.4830
v  0.1562 1.1004 0.4830
v  0.2282 1.1004 0.5522
v  0.1562 1.1004 0.5522
v  0.1562 0.0858 0.5522
v  0.2282 0.0858 0.5522
v  0.6353 1.0201 0.4830
v  0.6353 0.0858 0.4830
v  0.5633 0.0858 0.4830
v  0.5633 1.0201 0.4830
v  0.6353 1.0201 0.5522
v  0.5633 1.0201 0.5522
v  0.5633 0.0858 0.5522
v  0.6353 0.0858 0.5522
v  1.0507 0.8626 0.4830
v  1.0507 0.0858 0.4830
v  0.9787 0.0858 0.4830
v  0.9787 0.8626 0.4830
v  1.0507 0.8626 0.5522
v  0.9787 0.8626 0.5522
v  0.9787 0.0858 0.5522
v  1.0507 0.0858 0.5522
v  1.6031 0.2295 -0.6561
v  -1.6180 0.2293 -0.6678
v  -1.6123 0.2295 0.6620
v  1.6151 0.2295 0.6614
v  -1.6617 0.1824 -0.6838
v  -1.6616 0.1772 0.6842
v  1.6552 0.1944 0.6802
v  1.6535 0.1856 -0.6832
v  -1.6617 0.1486 -0.6833
v  -1.6492 0.1407 0.6819
v  1.6617 0.1565 0.6810
v  -1.6265 0.1045 0.6684
v  1.6183 0.1038 0.6633
v  1.6523 0.1412 -0.6820
v  -1.6282 0.1049 -0.6630
v  1.6169 0.1038 -0.6633
v  1.6640 0.1250 -0.6916
v  -1.6794 0.1248 -0.7039
v  -1.6735 0.1250 0.6978
v  1.6764 0.1250 0.6971
v  -1.7248 0.0761 -0.7208
v  -1.7247 0.0706 0.7212
v  1.7181 0.0886 0.7170
v  1.7162 0.0794 -0.7201
v  -1.7248 0.0410 -0.7202
v  -1.7118 0.0327 0.7187
v  1.7248 0.0492 0.7178
v  -1.6883 -0.0048 0.7045
v  1.6798 -0.0055 0.6991
v  1.7151 0.0333 -0.7189
v  -1.6900 -0.0044 -0.6988
v  1.6782 -0.0055 -0.6992
# 202 vertices

vn 0.1674 -0.1650 0.9720
vn 0.0530 0.1409 0.9886
vn -0.0617 -0.1461 0.9873
vn 0.0834 0.3450 0.9349
vn -0.2883 -0.1313 0.9485
vn -0.4387 0.2552 0.8616
vn 0.3465 -0.1258 0.9296
vn 0.3557 0.2041 0.9120
vn 0.0083 0.1295 0.9915
vn -0.0365 -0.1503 0.9880
vn -0.1434 -0.1782 0.9735
vn -0.1903 0.2181 0.9572
vn -0.4321 -0.0594 0.8999
vn -0.2592 0.0042 0.9658
vn 0.2446 0.0176 0.9695
vn 0.3189 -0.0806 0.9444
vn -0.5746 0.5786 0.5788
vn 0.3740 0.6093 0.6992
vn -0.0081 1.0000 0.0027
vn -0.7149 0.6992 -0.0008
vn -0.2715 0.6227 0.7339
vn 0.5878 0.5734 0.5707
vn 0.7024 0.7118 0.0044
vn 0.0019 1.0000 0.0055
vn -0.0115 0.7720 0.6356
vn 0.2248 0.8433 0.4881
vn 0.0069 0.9996 0.0283
vn -0.0002 1.0000 0.0012
vn 0.0417 0.5487 0.8350
vn 0.0001 1.0000 0.0038
vn -0.0089 0.8761 0.4820
vn 0.0022 0.7002 0.7139
vn -0.0001 1.0000 0.0039
vn -0.0550 0.5932 0.8032
vn -0.0318 0.8270 0.5613
vn 0.0002 1.0000 0.0034
vn -0.0001 1.0000 0.0037
vn 0.0036 0.7413 0.6712
vn 0.0009 1.0000 0.0020
vn -0.1366 0.8244 0.5493
vn 0.5695 -0.5802 0.5823
vn -0.3221 -0.6172 0.7179
vn 0.7276 -0.6860 0.0015
vn 0.0101 -0.9999 0.0060
vn -0.2068 -0.8189 0.5354
vn 0.2865 -0.6146 0.7350
vn 0.1060 -0.8315 0.5453
vn -0.5796 -0.5785 0.5739
vn -0.7117 -0.7025 0.0009
vn -0.0080 -1.0000 0.0049
vn 0.0058 -0.7401 0.6724
vn 0.0026 -0.8222 0.5692
vn 0.0137 0.9855 0.1690
vn 0.0013 -1.0000 0.0016
vn 0.0017 -0.8093 0.5874
vn -0.0200 -0.7909 0.6116
vn 0.0527 0.9916 -0.1179
vn 0.0109 -0.9999 0.0062
vn -0.0097 -0.8427 0.5384
vn 0.0046 -1.0000 -0.0012
vn 0.0071 -0.6980 0.7161
vn -0.0054 -1.0000 0.0025
vn 0.1667 0.9351 -0.3127
vn -0.1992 0.8778 -0.4357
vn -0.1977 0.8990 0.3908
vn 0.1677 0.9239 0.3439
vn -0.6635 0.4041 -0.6297
vn -0.7536 0.2177 0.6202
vn 0.5672 0.5354 0.6258
vn 0.6510 0.4234 -0.6301
vn -0.6627 -0.4057 -0.6294
vn -0.5216 -0.5487 0.6533
vn 0.7291 -0.2898 0.6200
vn -0.2785 -0.8728 0.4008
vn 0.2238 -0.8745 0.4303
vn 0.6415 -0.4536 -0.6187
vn -0.2398 -0.9014 -0.3605
vn 0.1975 -0.9145 -0.3531
vn 0.7026 0.0021 -0.7116
vn 0.7127 0.0021 -0.7014
vn 0.7057 -0.0004 0.7085
vn 0.7098 -0.0004 0.7044
vn -0.7120 0.0003 -0.7022
vn -0.7005 0.0003 -0.7136
vn -0.7068 -0.0010 0.7074
vn -0.7065 -0.0010 0.7077
vn -0.2322 -0.2213 0.9472
vn 0.2228 -0.2208 0.9495
vn 0.4969 -0.5077 0.7038
vn -0.5012 -0.5100 0.6991
vn 0.0002 0.0052 1.0000
vn -0.0115 0.0049 0.9999
vn 0.2681 0.2356 0.9341
vn 0.4891 0.5918 0.6408
vn -0.2782 0.2357 0.9312
vn -0.4966 0.5901 0.6365
vn -0.0096 -0.0045 0.9999
vn -0.0000 -0.0046 1.0000
vn -0.1885 0.6944 -0.6944
vn 0.1885 0.6944 -0.6944
vn 0.1885 -0.6944 -0.6944
vn -0.1885 -0.6944 -0.6944
vn -0.1885 0.6944 0.6944
vn -0.1885 -0.6944 0.6944
vn 0.1885 -0.6944 0.6944
vn 0.1885 0.6944 0.6944
vn 0.5514 0.6259 -0.5514
vn 0.5514 -0.6259 -0.5514
vn -0.5514 -0.6259 -0.5514
vn -0.5514 0.6259 -0.5514
vn 0.5514 0.6259 0.5514
vn -0.5514 0.6259 0.5514
vn -0.5514 -0.6259 0.5514
vn 0.5514 -0.6259 0.5514
vn 0.2542 0.8414 -0.4769
vn -0.2824 0.7341 -0.6176
vn -0.2874 0.7711 0.5682
vn 0.2518 0.8185 0.5164
vn -0.7019 0.2522 -0.6661
vn -0.7655 0.1305 0.6300
vn 0.6290 0.3503 0.6940
vn 0.6927 0.2658 -0.6705
vn -0.7014 -0.2533 -0.6662
vn -0.5818 -0.3611 0.7287
vn 0.7499 -0.1759 0.6377
vn -0.3925 -0.7258 0.5649
vn 0.3161 -0.7286 0.6077
vn 0.6894 -0.2876 -0.6649
vn -0.3497 -0.7755 -0.5257
vn 0.2929 -0.8000 -0.5236
vn 0.2552 0.8441 -0.4715
vn -0.2841 0.7381 -0.6119
vn -0.2890 0.7747 0.5625
vn 0.2530 0.8216 0.5108
vn -0.7067 0.2537 -0.6605
vn -0.7702 0.1312 0.6242
vn 0.6337 0.3527 0.6885
vn 0.6975 0.2674 -0.6648
vn -0.7062 -0.2549 -0.6605
vn -0.5866 -0.3638 0.7235
vn 0.7546 -0.1768 0.6319
vn -0.3946 -0.7291 0.5592
vn 0.3180 -0.7325 0.6020
vn 0.6941 -0.2893 -0.6592
vn -0.3513 -0.7785 -0.5201
vn 0.2942 -0.8032 -0.5180
# 146 vertex normals

vt 0.7743 0.3559 0.0000
vt 0.7729 0.3494 0.0000
vt 0.8049 0.3493 0.0000
vt 0.8063 0.3564 0.0000
vt 0.7744 0.3432 0.0000
vt 0.8055 0.3442 0.0000
vt 0.7736 0.3383 0.0000
vt 0.8050 0.3391 0.0000
vt 0.7724 0.3329 0.0000
vt 0.8040 0.3330 0.0000
vt 0.7738 0.3265 0.0000
vt 0.8044 0.3265 0.0000
vt 0.8066 0.3607 0.0000
vt 0.7739 0.3607 0.0000
vt 0.7728 0.3206 0.0000
vt 0.8035 0.3209 0.0000
vt 0.8103 0.5275 0.0000
vt 0.8092 0.4809 0.0000
vt 0.9538 0.4887 0.0000
vt 0.9545 0.5250 0.0000
vt 0.8090 0.2001 0.0000
vt 0.8104 0.1555 0.0000
vt 0.9541 0.1573 0.0000
vt 0.9536 0.2019 0.0000
vt 0.8106 0.3630 0.0000
vt 0.8118 0.4786 0.0000
vt 0.8104 0.3552 0.0000
vt 0.9515 0.4793 0.0000
vt 0.8108 0.3483 0.0000
vt 0.9499 0.3479 0.0000
vt 0.8110 0.3439 0.0000
vt 0.8106 0.3382 0.0000
vt 0.9499 0.3337 0.0000
vt 0.8109 0.3331 0.0000
vt 0.8100 0.3267 0.0000
vt 0.9489 0.3192 0.0000
vt 0.9485 0.3109 0.0000
vt 0.8108 0.3164 0.0000
vt 0.9496 0.2067 0.0000
vt 0.8116 0.2036 0.0000
vt 0.7662 0.1558 0.0000
vt 0.7671 0.2009 0.0000
vt 0.7672 0.0112 0.0000
vt 0.8123 0.0112 0.0000
vt 0.6248 0.2011 0.0000
vt 0.6224 0.1572 0.0000
vt 0.7647 0.2039 0.0000
vt 0.7666 0.4810 0.0000
vt 0.7641 0.4777 0.0000
vt 0.7652 0.5272 0.0000
vt 0.8085 0.6723 0.0000
vt 0.7632 0.6722 0.0000
vt 0.6227 0.4788 0.0000
vt 0.6209 0.5248 0.0000
vt 0.7656 0.3633 0.0000
vt 0.7655 0.3545 0.0000
vt 0.7655 0.3488 0.0000
vt 0.6262 0.4761 0.0000
vt 0.7654 0.3442 0.0000
vt 0.7654 0.3376 0.0000
vt 0.7653 0.3315 0.0000
vt 0.6262 0.3499 0.0000
vt 0.7652 0.3267 0.0000
vt 0.6261 0.3125 0.0000
vt 0.7654 0.3194 0.0000
vt 0.6254 0.2129 0.0000
vt 0.1199 0.6046 0.0000
vt 0.5705 0.6041 0.0000
vt 0.5692 0.7901 0.0000
vt 0.1178 0.7889 0.0000
vt 0.5778 0.6019 0.0000
vt 0.5774 0.7932 0.0000
vt 0.5761 0.7955 0.0000
vt 0.1122 0.7928 0.0000
vt 0.1129 0.5994 0.0000
vt 0.5767 0.5996 0.0000
vt 0.1115 0.7915 0.0000
vt 0.1119 0.6008 0.0000
vt 0.5806 0.6020 0.0000
vt 0.5809 0.7930 0.0000
vt 0.5744 0.7985 0.0000
vt 0.1112 0.7959 0.0000
vt 0.5712 0.8020 0.0000
vt 0.1173 0.8009 0.0000
vt 0.5767 0.5969 0.0000
vt 0.1130 0.5957 0.0000
vt 0.1083 0.6009 0.0000
vt 0.1082 0.7915 0.0000
vt 0.5864 0.6048 0.0000
vt 0.5852 0.7911 0.0000
vt 0.1180 0.5917 0.0000
vt 0.5720 0.5923 0.0000
vt 0.1167 0.9866 0.0000
vt 0.5708 0.9882 0.0000
vt 0.1025 0.6034 0.0000
vt 0.1008 0.7891 0.0000
vt 0.9925 0.7155 0.0000
vt 0.9923 0.9735 0.0000
vt 0.8396 0.9727 0.0000
vt 0.8400 0.7166 0.0000
vt 0.6407 0.7150 0.0000
vt 0.6398 0.9729 0.0000
vt 0.5920 0.9733 0.0000
vt 0.5919 0.7153 0.0000
vt 0.7929 0.9727 0.0000
vt 0.7928 0.7170 0.0000
vt 0.4088 0.4557 0.0000
vt 0.1470 0.4544 0.0000
vt 0.1826 0.3177 0.0000
vt 0.3754 0.3204 0.0000
vt 0.4511 0.4824 0.0000
vt 0.1044 0.4778 0.0000
vt 0.0471 0.1317 0.0000
vt 0.1843 0.1653 0.0000
vt 0.0448 0.3484 0.0000
vt 0.4134 0.0322 0.0000
vt 0.3771 0.1668 0.0000
vt 0.1516 0.0279 0.0000
vt 0.1095 0.0036 0.0000
vt 0.4563 0.0065 0.0000
vt 0.5111 0.3521 0.0000
vt 0.5135 0.1380 0.0000
vt 0.5534 0.3789 0.0000
vt 0.5563 0.1122 0.0000
vt 0.0022 0.3717 0.0000
vt 0.0051 0.1075 0.0000
vt 0.5829 0.5421 0.0000
vt 0.1202 0.5431 0.0000
vt 0.1201 0.5267 0.0000
vt 0.5828 0.5257 0.0000
vt 0.5826 0.4936 0.0000
vt 0.5827 0.5100 0.0000
vt 0.1200 0.5110 0.0000
vt 0.1199 0.4946 0.0000
vt 0.5830 0.5578 0.0000
vt 0.1203 0.5588 0.0000
vt 0.0332 0.6877 0.0000
vt 0.0332 0.3842 0.0000
vt 0.0522 0.3842 0.0000
vt 0.0522 0.6877 0.0000
vt 0.0894 0.6877 0.0000
vt 0.0704 0.6877 0.0000
vt 0.0704 0.3842 0.0000
vt 0.0894 0.3842 0.0000
vt 0.0150 0.6877 0.0000
vt 0.0150 0.3842 0.0000
vt 0.0522 0.7060 0.0000
vt 0.0332 0.7060 0.0000
# 148 texture coords

o default001
g default001
usemtl fireplace
s 1
f 1/1/1 2/2/2 3/3/3 4/4/4 
f 5/5/5 6/6/6 3/3/3 2/2/2 
f 5/5/5 7/7/7 8/8/8 6/6/6 
f 9/9/9 10/10/10 8/8/8 7/7/7 
f 9/9/9 11/11/11 12/12/12 10/10/10 
f 13/13/13 14/14/14 1/1/1 4/4/4 
f 12/12/12 11/11/11 15/15/15 16/16/16 
f 17/17/17 18/18/18 19/19/19 20/20/20 
f 21/21/21 22/22/22 23/23/23 24/24/24 
f 14/14/14 13/13/13 25/25/25 26/26/26 
f 13/13/13 4/4/4 27/27/27 25/25/25 
f 18/18/18 26/26/26 28/28/28 19/19/19 
f 27/27/27 4/4/4 3/3/3 29/29/29 
f 25/25/25 30/30/30 28/28/28 26/26/26 
f 30/30/30 25/25/25 27/27/27 29/29/29 
f 3/3/3 6/6/6 31/31/31 29/29/29 
f 8/8/8 32/32/32 31/31/31 6/6/6 
f 30/30/30 29/29/29 33/33/33 
f 34/34/34 32/32/32 8/8/8 10/10/10 
f 12/12/12 35/35/35 34/34/34 10/10/10 
f 33/33/33 29/29/29 31/31/31 36/36/36 
f 34/34/34 36/36/36 31/31/31 32/32/32 
f 37/37/37 36/36/36 34/34/34 35/35/35 
f 35/35/35 12/12/12 16/16/16 38/38/38 
f 37/37/37 35/35/35 38/38/38 39/39/39 
f 15/15/15 40/40/40 38/38/38 16/16/16 
f 38/38/38 40/40/40 39/39/39 
f 21/21/21 24/24/24 39/39/39 40/40/40 
f 41/41/41 22/22/22 21/21/21 42/42/42 
f 43/43/43 23/44/23 22/22/22 41/41/41 
f 44/45/44 43/46/43 41/41/41 42/42/42 
f 40/40/40 45/47/45 42/42/42 21/21/21 
f 18/18/18 46/48/46 47/49/47 26/26/26 
f 17/17/17 48/50/48 46/48/46 18/18/18 
f 48/50/48 17/17/17 20/51/20 49/52/49 
f 50/53/50 46/48/46 48/50/48 49/54/49 
f 14/14/14 26/26/26 47/49/47 51/55/51 
f 52/56/52 1/1/1 14/14/14 51/55/51 
f 1/1/1 52/56/52 53/57/53 2/2/2 
f 46/48/46 50/53/50 54/58/54 47/49/47 
f 51/55/51 47/49/47 54/58/54 
f 55/59/55 5/5/5 2/2/2 53/57/53 
f 55/59/55 56/60/56 7/7/7 5/5/5 
f 7/7/7 56/60/56 57/61/57 9/9/9 
f 52/56/52 51/55/51 54/58/54 58/62/58 
f 58/62/58 55/59/55 53/57/53 52/56/52 
f 57/61/57 59/63/59 11/11/11 9/9/9 
f 59/63/59 57/61/57 56/60/56 60/64/60 
f 55/59/55 58/62/58 60/64/60 56/60/56 
f 59/63/59 61/65/61 15/15/15 11/11/11 
f 60/64/60 62/66/62 61/65/61 59/63/59 
f 40/40/40 15/15/15 61/65/61 45/47/45 
f 62/66/62 45/47/45 61/65/61 
f 45/47/45 62/66/62 44/45/44 42/42/42 
f 63/67/63 64/68/64 65/69/65 66/70/66 
f 65/69/65 64/68/64 67/71/67 68/72/68 
f 66/70/66 65/69/65 68/73/68 69/74/69 
f 70/75/70 67/76/67 64/68/64 63/67/63 
f 69/77/69 70/78/70 63/67/63 66/70/66 
f 71/79/71 72/80/72 68/72/68 67/71/67 
f 72/81/72 73/82/73 69/74/69 68/73/68 
f 73/82/73 72/81/72 74/83/74 75/84/75 
f 71/85/71 67/76/67 70/75/70 76/86/76 
f 76/87/76 70/78/70 69/77/69 73/88/73 
f 72/80/72 71/79/71 77/89/77 74/90/74 
f 71/85/71 76/86/76 78/91/78 77/92/77 
f 78/93/78 75/84/75 74/83/74 77/94/77 
f 78/95/78 76/87/76 73/88/73 75/96/75 
f 79/97/79 80/98/80 81/99/81 82/100/82 
f 83/101/83 84/102/84 80/103/80 79/104/79 
f 85/105/85 86/106/86 82/100/82 81/99/81 
f 84/102/84 83/101/83 86/106/86 85/105/85 
f 87/97/79 88/98/80 89/99/81 90/100/82 
f 91/101/83 92/102/84 88/103/80 87/104/79 
f 93/105/85 94/106/86 90/100/82 89/99/81 
f 92/102/84 91/101/83 94/106/86 93/105/85 
f 95/107/87 96/108/88 97/109/89 98/110/90 
f 95/107/87 99/111/91 100/112/92 96/108/88 
f 101/113/93 102/114/94 97/109/89 96/115/88 
f 103/116/95 104/117/96 102/114/94 101/118/93 
f 102/114/94 104/117/96 98/110/90 97/109/89 
f 103/116/95 101/118/93 105/119/97 106/120/98 
f 95/121/87 98/110/90 104/117/96 103/122/95 
f 99/123/91 95/121/87 103/122/95 106/124/98 
f 96/115/88 100/125/92 105/126/97 101/113/93 
f 107/127/99 108/128/100 109/129/101 110/130/102 
f 111/131/103 112/132/104 113/133/105 114/134/106 
f 111/135/103 114/136/106 108/128/100 107/127/99 
f 113/133/105 112/132/104 110/130/102 109/129/101 
f 115/127/99 116/128/100 117/129/101 118/130/102 
f 119/131/103 120/132/104 121/133/105 122/134/106 
f 119/135/103 122/136/106 116/128/100 115/127/99 
f 121/133/105 120/132/104 118/130/102 117/129/101 
f 123/137/107 124/138/108 125/139/109 126/140/110 
f 127/141/111 128/142/112 129/143/113 130/144/114 
f 127/145/111 130/146/114 124/138/108 123/137/107 
f 128/147/112 127/148/111 123/137/107 126/140/110 
f 129/143/113 128/142/112 126/140/110 125/139/109 
f 131/137/107 132/138/108 133/139/109 134/140/110 
f 135/141/111 136/142/112 137/143/113 138/144/114 
f 135/145/111 138/146/114 132/138/108 131/137/107 
f 136/147/112 135/148/111 131/137/107 134/140/110 
f 137/143/113 136/142/112 134/140/110 133/139/109 
f 139/137/107 140/138/108 141/139/109 142/140/110 
f 143/141/111 144/142/112 145/143/113 146/144/114 
f 143/145/111 146/146/114 140/138/108 139/137/107 
f 144/147/112 143/148/111 139/137/107 142/140/110 
f 145/143/113 144/142/112 142/140/110 141/139/109 
f 147/137/107 148/138/108 149/139/109 150/140/110 
f 151/141/111 152/142/112 153/143/113 154/144/114 
f 151/145/111 154/146/114 148/138/108 147/137/107 
f 152/147/112 151/148/111 147/137/107 150/140/110 
f 153/143/113 152/142/112 150/140/110 149/139/109 
f 155/137/107 156/138/108 157/139/109 158/140/110 
f 159/141/111 160/142/112 161/143/113 162/144/114 
f 159/145/111 162/146/114 156/138/108 155/137/107 
f 160/147/112 159/148/111 155/137/107 158/140/110 
f 161/143/113 160/142/112 158/140/110 157/139/109 
f 163/137/107 164/138/108 165/139/109 166/140/110 
f 167/141/111 168/142/112 169/143/113 170/144/114 
f 167/145/111 170/146/114 164/138/108 163/137/107 
f 168/147/112 167/148/111 163/137/107 166/140/110 
f 169/143/113 168/142/112 166/140/110 165/139/109 
f 171/67/115 172/68/116 173/69/117 174/70/118 
f 173/69/117 172/68/116 175/71/119 176/72/120 
f 174/70/118 173/69/117 176/73/120 177/74/121 
f 178/75/122 175/76/119 172/68/116 171/67/115 
f 177/77/121 178/78/122 171/67/115 174/70/118 
f 179/79/123 180/80/124 176/72/120 175/71/119 
f 180/81/124 181/82/125 177/74/121 176/73/120 
f 181/82/125 180/81/124 182/83/126 183/84/127 
f 179/85/123 175/76/119 178/75/122 184/86/128 
f 184/87/128 178/78/122 177/77/121 181/88/125 
f 180/80/124 179/79/123 185/89/129 182/90/126 
f 179/85/123 184/86/128 186/91/130 185/92/129 
f 186/95/130 184/87/128 181/88/125 183/96/127 
f 187/67/131 188/68/132 189/69/133 190/70/134 
f 189/69/133 188/68/132 191/71/135 192/72/136 
f 190/70/134 189/69/133 192/73/136 193/74/137 
f 194/75/138 191/76/135 188/68/132 187/67/131 
f 193/77/137 194/78/138 187/67/131 190/70/134 
f 195/79/139 196/80/140 192/72/136 191/71/135 
f 196/81/140 197/82/141 193/74/137 192/73/136 
f 197/82/141 196/81/140 198/83/142 199/84/143 
f 195/85/139 191/76/135 194/75/138 200/86/144 
f 200/87/144 194/78/138 193/77/137 197/88/141 
f 196/80/140 195/79/139 201/89/145 198/90/142 
f 195/85/139 200/86/144 202/91/146 201/92/145 
f 202/93/146 199/84/143 198/83/142 201/94/145 
f 202/95/146 200/87/144 197/88/141 199/96/143 
# 146 polygons - 4 triangles

